<?xml version="1.0" encoding="utf-8"?>
<!-- Generator: Adobe Illustrator 17.0.0, SVG Export Plug-In . SVG Version: 6.00 Build 0)  -->
<!DOCTYPE svg PUBLIC "-//W3C//DTD SVG 1.1//EN" "http://www.w3.org/Graphics/SVG/1.1/DTD/svg11.dtd">
<svg version="1.1" id="图层_1" xmlns="http://www.w3.org/2000/svg" xmlns:xlink="http://www.w3.org/1999/xlink" x="0px" y="0px"
	 width="178.699px" height="22.312px" viewBox="-1428.341 63.199 178.699 22.312"
	 enable-background="new -1428.341 63.199 178.699 22.312" xml:space="preserve">
<g>
	<g>
		<path fill="#FFFFFF" d="M-1425.06,71.355c-0.688,1-1.251,1.875-1.688,2.625c-0.375-0.437-0.907-0.875-1.594-1.312
			c1.187-1.25,2.234-2.672,3.141-4.266c0.905-1.594,1.578-3.266,2.016-5.016c0.437,0.313,1.156,0.625,2.156,0.938
			c-0.375,0.501-1.125,1.844-2.25,4.031v12.188c0,1.938,0.031,3.5,0.094,4.688h-1.969c0.062-1,0.094-2.593,0.094-4.781V71.355z
			 M-1418.731,67.324c0.781-1.875,1.172-3.094,1.172-3.656c0.75,0.313,1.562,0.562,2.438,0.75c-0.375,0.313-0.938,1.281-1.688,2.906
			h9.844c-0.188,0.562-0.469,1.328-0.844,2.297c-0.375,0.97-0.719,1.891-1.031,2.766c-0.625-0.188-1.251-0.343-1.875-0.469
			c0.437-0.938,0.844-1.937,1.219-3h-7.969c-0.75,1.626-1.626,3.126-2.625,4.5c-0.501-0.312-1.157-0.562-1.969-0.75
			C-1420.623,70.98-1419.514,69.199-1418.731,67.324z M-1418.122,74.542c0.75,0.375,1.343,0.688,1.781,0.938
			c-0.375,0.625-0.938,1.5-1.688,2.625s-1.594,2.25-2.531,3.375c-0.501-0.437-1-0.844-1.5-1.219
			C-1420.498,78.636-1419.186,76.731-1418.122,74.542z M-1415.685,83.027c0.375-0.155,0.562-0.483,0.562-0.984v-7.875
			c0-1.5-0.032-2.593-0.094-3.281h1.969c-0.063,0.688-0.094,1.781-0.094,3.281v8.906c0,0.812-0.344,1.359-1.031,1.641
			c-0.688,0.281-1.626,0.516-2.812,0.703c-0.126-0.625-0.438-1.345-0.938-2.156C-1416.873,83.261-1416.06,83.182-1415.685,83.027z
			 M-1406.403,80.167c-0.375,0.25-0.97,0.625-1.781,1.125c-1.063-2-2.282-3.999-3.656-6c0.624-0.375,1.125-0.688,1.5-0.938
			C-1408.841,76.417-1407.528,78.355-1406.403,80.167z"/>
		<path fill="#FFFFFF" d="M-1387.653,64.042c0.938,0,2-0.031,3.188-0.094v1.594c-1.188-0.062-2.25-0.094-3.188-0.094h-4.594v1.594
			h9.375v4.406h-1.781v-3h-7.594v2.625c0,1.063,0.031,2.031,0.094,2.906h-1.969c0.062-0.812,0.094-1.749,0.094-2.812v-2.719h-7.688
			v3h-1.875c0-0.688,0.015-1.374,0.047-2.062c0.031-0.688,0.015-1.468-0.047-2.344h9.562v-1.594h-4.594
			c-0.938,0-1.875,0.032-2.812,0.094v-1.594c0.938,0.062,1.843,0.094,2.719,0.094H-1387.653z M-1385.966,75.199
			c0.875,0,1.906-0.031,3.094-0.094v1.594c-1.188-0.062-2.219-0.094-3.094-0.094h-6.469c-0.313,0.562-0.532,1.125-0.656,1.688h8.812
			c-0.063,0.812-0.094,1.532-0.094,2.156v2.812c0,0.75-0.188,1.233-0.562,1.453c-0.375,0.219-1.188,0.453-2.438,0.703
			c-0.063-0.562-0.344-1.219-0.844-1.969c0.999,0,1.594-0.062,1.781-0.188c0.188-0.126,0.281-0.437,0.281-0.938v-2.625h-3.656v4.781
			h-1.781v-4.781h-3.281v4.781h-1.781v-4.781h-3.562v5.531h-1.781c0.062-0.876,0.094-1.813,0.094-2.812v-1.5
			c0-0.812-0.032-1.688-0.094-2.625h7.219c0.188-0.562,0.343-1.125,0.469-1.688h-5.906c-1.063,0-2.095,0.032-3.094,0.094v-1.594
			c0.938,0.062,1.937,0.094,3,0.094H-1385.966z M-1395.997,73.886h-4.594v-1.312h4.594V73.886z M-1395.903,71.261h-4.406v-1.312
			h4.406V71.261z M-1386.528,71.167h-4.406v-1.312h4.406V71.167z M-1386.435,73.699h-4.406v-1.312h4.406V73.699z"/>
		<path fill="#FFFFFF" d="M-1362.153,64.324c0.938,0,2-0.031,3.188-0.094v1.594c-1.188-0.062-2.25-0.094-3.188-0.094h-3.75v2.438
			h5.25c-0.063,1.063-0.094,2.062-0.094,3s0.031,1.907,0.094,2.906h-9.938c0.687,0.438,1.219,0.782,1.594,1.031
			c-0.562,0.375-0.97,0.719-1.219,1.031h8.812c0.999,0,2.062-0.062,3.188-0.188v1.781c-1.125-0.062-2.219-0.094-3.281-0.094h-2.719
			c-0.625,1.063-1.469,2.219-2.531,3.469c2.812,0.75,5.468,1.562,7.969,2.438c-0.625,0.437-1.125,0.969-1.5,1.594
			c-2.376-1.063-5.001-2.001-7.875-2.812c-0.876,0.625-1.985,1.187-3.328,1.688c-1.345,0.5-2.625,0.844-3.844,1.031
			s-2.329,0.343-3.328,0.469c-0.188-0.812-0.595-1.469-1.219-1.969c1.187,0.062,2.438,0.031,3.75-0.094
			c1.312-0.126,2.499-0.36,3.562-0.703c1.062-0.343,1.906-0.703,2.531-1.078c-2.062-0.5-4.094-0.938-6.094-1.312
			c0.938-0.938,1.812-1.843,2.625-2.719h-3.938c-1.063,0-2.095,0.032-3.094,0.094v-1.688c1.25,0.062,2.281,0.094,3.094,0.094h4.969
			c0.624-0.75,1.125-1.438,1.5-2.062h-6.938c0.062-0.999,0.094-1.969,0.094-2.906s-0.032-1.937-0.094-3h5.156V65.73h-3.656
			c-1.063,0-2.188,0.032-3.375,0.094V64.23c1.187,0.062,2.281,0.094,3.281,0.094H-1362.153z M-1372.747,72.667v-3h-3.281v3
			H-1372.747z M-1368.528,80.542c0.75-0.75,1.531-1.719,2.344-2.906h-5.062c-0.562,0.562-1.125,1.157-1.688,1.781
			C-1371.936,79.605-1370.466,79.98-1368.528,80.542z M-1367.591,68.167V65.73h-3.375v2.438H-1367.591z M-1367.591,72.667v-3h-3.375
			v3H-1367.591z M-1362.528,72.667v-3h-3.375v3H-1362.528z"/>
		<path fill="#FFFFFF" d="M-1352.778,79.886c-0.562,1.438-1.094,2.657-1.594,3.656c-0.562-0.438-1.188-0.844-1.875-1.219
			c0.687-1.125,1.312-2.265,1.875-3.422c0.562-1.156,1.125-2.64,1.688-4.453c0.437,0.438,0.999,0.75,1.688,0.938
			C-1351.623,76.949-1352.216,78.449-1352.778,79.886z M-1352.919,66.902c0.781,0.782,1.515,1.547,2.203,2.297
			c-0.562,0.562-1.031,1.063-1.406,1.5c-0.688-0.999-1.969-2.438-3.844-4.312c0.5-0.375,0.968-0.781,1.406-1.219
			C-1354.248,65.542-1353.701,66.121-1352.919,66.902z M-1348.747,68.871c0.938-1.843,1.594-3.577,1.969-5.203
			c0.687,0.313,1.437,0.595,2.25,0.844c-0.375,0.438-0.876,1.5-1.5,3.188h6.844c1.437,0,2.75-0.031,3.938-0.094v1.688
			c-1.251-0.062-2.563-0.094-3.938-0.094h-1.125v3.188c1.812,0,3.281-0.031,4.406-0.094v1.688c-1.125-0.062-2.594-0.094-4.406-0.094
			v3.188c1.875,0,3.343-0.031,4.406-0.094v1.594c-1.063-0.062-2.531-0.094-4.406-0.094v3.188c2.625,0,4.531-0.031,5.719-0.094v1.875
			c-1.188-0.062-2.531-0.094-4.031-0.094h-7.594v1.969h-1.969c0.062-1.125,0.094-2.719,0.094-4.781v-8.906
			c-0.375,0.688-0.844,1.5-1.406,2.438c-0.501-0.624-1.094-1.093-1.781-1.406C-1350.528,71.98-1349.685,70.714-1348.747,68.871z
			 M-1342.185,72.386v-3.188h-4.031v3.188H-1342.185z M-1342.185,77.074v-3.188h-4.031v3.188H-1342.185z M-1342.185,81.667V78.48
			h-4.031v3.188H-1342.185z M-1339.278,66.199c-0.438,0.25-0.938,0.625-1.5,1.125c-0.438-0.75-1.219-1.655-2.344-2.719
			c0.375-0.188,0.844-0.562,1.406-1.125C-1340.591,64.543-1339.779,65.449-1339.278,66.199z"/>
		<path fill="#FFFFFF" d="M-1332.341,74.261c1.562-0.125,3.265-0.375,5.109-0.75c1.843-0.375,3.328-0.875,4.453-1.5
			c-1.438-1.187-2.625-2.25-3.562-3.188c-0.75,0.75-1.626,1.562-2.625,2.438c-0.562-0.5-1.063-0.844-1.5-1.031
			c2.438-1.875,4.343-4.219,5.719-7.031c0.624,0.375,1.28,0.688,1.969,0.938l-0.75,0.75c-0.188,0.188-0.501,0.562-0.938,1.125
			h10.406c-0.562,1.063-1.298,2.109-2.203,3.141c-0.907,1.031-1.985,2.016-3.234,2.953c0.999,0.501,2.452,0.906,4.359,1.219
			c1.906,0.313,3.577,0.407,5.016,0.281c-0.375,0.625-0.656,1.281-0.844,1.969c-2.25-0.249-4.125-0.516-5.625-0.797
			s-3.032-0.828-4.594-1.641c-1.75,0.812-3.579,1.438-5.484,1.875c-1.907,0.438-3.454,0.782-4.641,1.031
			C-1331.436,75.48-1331.778,74.886-1332.341,74.261z M-1314.247,80.449c0,2.125,0.031,3.781,0.094,4.969h-1.781v-1.219h-10.594
			v1.219h-1.781c0.062-1.188,0.094-2.844,0.094-4.969c0-2.188-0.032-3.844-0.094-4.969h14.156
			C-1314.216,76.605-1314.247,78.261-1314.247,80.449z M-1322.122,79.136v-2.25h-4.406v2.25H-1322.122z M-1322.122,82.699v-2.156
			h-4.406v2.156H-1322.122z M-1320.997,71.167c1.312-0.812,2.687-2.094,4.125-3.844h-8.25l-0.281,0.281
			C-1324.091,68.856-1322.623,70.042-1320.997,71.167z M-1315.935,79.136v-2.25h-4.5v2.25H-1315.935z M-1315.935,82.699v-2.156h-4.5
			v2.156H-1315.935z"/>
		<path fill="#FFFFFF" d="M-1301.122,66.48c-0.375,0.688-0.75,1.438-1.125,2.25v12.844c0,1.625,0.031,2.906,0.094,3.844h-2.156
			c0.062-1.063,0.094-2.282,0.094-3.656v-9.562c-0.75,1.312-1.563,2.563-2.438,3.75c-0.375-0.437-0.844-0.905-1.406-1.406
			c1.125-1.125,2.312-2.906,3.562-5.344c1.25-2.438,2.03-4.312,2.344-5.625c0.687,0.438,1.406,0.782,2.156,1.031
			C-1300.372,65.167-1300.747,65.792-1301.122,66.48z M-1295.122,71.261v-4.688c0-0.875-0.032-1.812-0.094-2.812h2.156
			c-0.126,1-0.188,1.938-0.188,2.812v4.688h3.844c0.812,0,1.781-0.031,2.906-0.094v1.875c-1.063-0.062-2.001-0.094-2.812-0.094
			h-3.938v9.188c0,0.999,0.031,2.03,0.094,3.094h-2.062c0.062-1,0.094-2.001,0.094-3v-9.281h-3.281c-1,0-1.969,0.032-2.906,0.094
			v-1.875c0.938,0.062,1.875,0.094,2.812,0.094H-1295.122z"/>
		<path fill="#FFFFFF" d="M-1273.981,67.558c-0.844,1.345-1.922,2.766-3.234,4.266s-3.094,3.188-5.344,5.062
			c-0.438-0.688-0.938-1.25-1.5-1.688c1.562-0.875,3.312-2.452,5.25-4.734c1.937-2.281,3.375-4.484,4.312-6.609
			c0.812,0.562,1.5,0.97,2.062,1.219C-1272.622,65.387-1273.138,66.214-1273.981,67.558z M-1270.7,72.761
			c-1.031,1.438-2.329,3-3.891,4.688c-1.563,1.688-2.938,3.062-4.125,4.125c1.374-0.062,3.171-0.155,5.391-0.281
			c2.218-0.125,4.359-0.249,6.422-0.375c-1-1.749-1.844-3.094-2.531-4.031c0.624-0.375,1.156-0.781,1.594-1.219
			c0.999,1.375,1.969,2.766,2.906,4.172s1.749,2.734,2.438,3.984c-0.438,0.125-1.094,0.53-1.969,1.219
			c-0.375-0.75-0.844-1.562-1.406-2.438c-3.063,0.126-6.328,0.344-9.797,0.656s-5.391,0.594-5.766,0.844
			c-0.25-0.75-0.532-1.531-0.844-2.344c0.938-0.062,2.578-1.312,4.922-3.75s4.578-5.593,6.703-9.469
			c0.624,0.562,1.343,1.063,2.156,1.5C-1268.935,70.417-1269.669,71.324-1270.7,72.761z"/>
		<path fill="#FFFFFF" d="M-1253.778,65.824c1.625-0.188,2.937,0.656,3.938,2.531c0.624,2.125-0.22,4.251-2.531,6.375
			c-0.75,1.125-1.125,2.344-1.125,3.656h-1.688c-0.063-2.312,0.968-4.5,3.094-6.562c0.5-0.75,0.718-1.562,0.656-2.438
			c-0.375-1.25-1.094-1.843-2.156-1.781h-0.375c-1.312,0.062-1.938,1.031-1.875,2.906h-1.781c-0.063-2.312,0.718-3.75,2.344-4.312
			C-1255.029,66.011-1254.528,65.886-1253.778,65.824z M-1255.56,80.355h2.625v2.719h-2.625V80.355z"/>
	</g>
</g>
</svg>
