<?xml version="1.0" encoding="utf-8"?>
<!-- Generator: Adobe Illustrator 17.0.0, SVG Export Plug-In . SVG Version: 6.00 Build 0)  -->
<!DOCTYPE svg PUBLIC "-//W3C//DTD SVG 1.1//EN" "http://www.w3.org/Graphics/SVG/1.1/DTD/svg11.dtd">
<svg version="1.1" id="图层_1" xmlns="http://www.w3.org/2000/svg" xmlns:xlink="http://www.w3.org/1999/xlink" x="0px" y="0px"
	 width="640px" height="78.455px" viewBox="0 0 640 78.455" enable-background="new 0 0 640 78.455" xml:space="preserve">
<rect x="0" y="0" fill="#515151" width="640" height="78.455"/>
<g>
	<g>
		<path fill="#FFFFFF" d="M47.306,31.118c-0.562,0.188-1.75,0.469-3.562,0.844v3.562h4.875c0-1.688-0.032-4.031-0.094-7.031
			c0.687,0.126,1.374,0.188,2.062,0.188c-0.126,0.938-0.188,2.001-0.188,3.188v3.656h4.219c0.938,0,2.03-0.03,3.281-0.094v1.688
			c-1.251-0.062-2.313-0.094-3.188-0.094h-4.219c0.188,3,0.593,5.156,1.219,6.469c1.312-1.249,2.438-3.094,3.375-5.531
			c0.5,0.438,1.156,0.844,1.969,1.219c-0.501,0.562-1.157,1.485-1.969,2.766c-0.813,1.282-1.657,2.36-2.531,3.234
			c0.5,0.75,1.031,1.376,1.594,1.875c0.562,0.501,1.015,0.797,1.359,0.891c0.343,0.094,0.593-0.094,0.75-0.562
			c0.155-0.469,0.265-1.14,0.328-2.016c0.624,0.438,1.28,0.813,1.969,1.125c-0.501,1.749-1.031,2.844-1.594,3.281
			c-0.562,0.437-1.375,0.375-2.438-0.188c-1.063-0.562-2.156-1.626-3.281-3.188c-2.125,1.5-3.813,2.562-5.062,3.188
			c-0.375-0.688-0.844-1.251-1.406-1.688c1.875-0.624,3.718-1.655,5.531-3.094c-0.876-1.749-1.406-4.343-1.594-7.781h-4.969v3.656
			c1.437-0.312,2.531-0.624,3.281-0.938c0.062,0.626,0.125,1.219,0.188,1.781c-0.813,0.188-1.969,0.469-3.469,0.844v4.781
			c0.062,1.187-0.313,1.953-1.125,2.297c-0.813,0.343-1.75,0.609-2.812,0.797c-0.063-0.688-0.375-1.406-0.938-2.156
			c1.25,0,2.077-0.079,2.484-0.234c0.406-0.155,0.609-0.516,0.609-1.078v-3.938c-2.376,0.626-3.938,1.063-4.688,1.312
			c-0.063-0.874-0.25-1.594-0.562-2.156c1.125-0.124,2.874-0.437,5.25-0.938v-4.031c-2.438,0-4.125,0.032-5.062,0.094V35.43
			c0.999,0.063,2.687,0.094,5.062,0.094V32.43l-3.938,0.844c-0.188-0.687-0.438-1.28-0.75-1.781c0.938,0,2.391-0.218,4.359-0.656
			c1.969-0.437,3.453-0.938,4.453-1.5C46.711,30.213,47.118,30.806,47.306,31.118z M56.493,32.993c-0.501,0.375-1,0.813-1.5,1.312
			c-1-1.374-2.062-2.499-3.188-3.375c0.5-0.437,0.905-0.874,1.219-1.312C54.649,31.118,55.805,32.243,56.493,32.993z"/>
		<path fill="#FFFFFF" d="M65.212,31.305c0-0.874-0.032-1.688-0.094-2.438h1.969c-0.063,1.063-0.094,2.062-0.094,3v14.906
			c0,0.375,0.031,1.5,0.094,3.375h-1.969c0.062-1.875,0.094-3,0.094-3.375V41.43c-1.313,1.563-2.438,2.876-3.375,3.938
			c-0.625-0.687-1.157-1.187-1.594-1.5c2.25-1.875,3.905-3.656,4.969-5.344V31.305z M65.025,35.712
			c-0.625,0.438-1.188,0.907-1.688,1.406c-0.688-1.249-1.72-2.687-3.094-4.312c0.5-0.437,1.031-0.874,1.594-1.312
			C63.087,33.056,64.149,34.463,65.025,35.712z M73.556,30.649h8.25c-1.125,2.25-2.266,3.937-3.422,5.062
			c-1.157,1.125-2.344,1.969-3.562,2.531s-2.735,1.125-4.547,1.688c-0.313-0.687-0.75-1.28-1.312-1.781
			c0.875-0.124,1.812-0.328,2.812-0.609c0.999-0.281,1.812-0.609,2.438-0.984c-0.562-0.624-1.188-1.249-1.875-1.875
			c0.249-0.124,0.687-0.499,1.312-1.125c1.062,1.001,1.781,1.72,2.156,2.156c1.187-0.812,2.187-1.999,3-3.562h-6.188
			c-0.562,0.813-1.532,1.907-2.906,3.281c-0.438-0.437-0.97-0.844-1.594-1.219c1.125-0.874,2.016-1.749,2.672-2.625
			c0.656-0.874,1.327-2.062,2.016-3.562c0.999,0.375,1.718,0.656,2.156,0.844C74.4,29.494,73.931,30.087,73.556,30.649z
			 M77.306,40.305v-0.844c0-0.499-0.032-1.125-0.094-1.875h2.062c-0.063,0.688-0.094,1.219-0.094,1.594v1.125h0.469
			c0.938,0,1.812-0.03,2.625-0.094v1.781c-0.938-0.062-1.813-0.094-2.625-0.094h-0.469v5.625c0,1.062-0.344,1.749-1.031,2.062
			c-0.688,0.312-1.532,0.53-2.531,0.656c-0.126-0.75-0.344-1.5-0.656-2.25c1.25,0.062,1.953,0.015,2.109-0.141
			c0.155-0.155,0.234-0.39,0.234-0.703v-5.25h-5.25c-1.188,0-2.344,0.032-3.469,0.094v-1.781c1.125,0.063,2.281,0.094,3.469,0.094
			H77.306z M74.4,46.024c-0.562,0.313-1.125,0.688-1.688,1.125c-0.562-1.312-1.251-2.531-2.062-3.656
			c0.562-0.312,1.062-0.656,1.5-1.031C73.212,44.088,73.962,45.274,74.4,46.024z"/>
		<path fill="#FFFFFF" d="M106.368,36.837c-0.562,0.501-1,1.063-1.312,1.688c-4.251-1.937-7.469-4.437-9.656-7.5
			c-2.938,3.313-6.157,5.97-9.656,7.969c-0.625-0.874-1.157-1.406-1.594-1.594c2.312-0.812,4.515-2.156,6.609-4.031
			c2.093-1.875,3.516-3.593,4.266-5.156c0.562,0.375,1.219,0.72,1.969,1.031l-0.562,0.562
			C98.618,32.931,101.93,35.275,106.368,36.837z M90.243,47.618c4.125-0.124,7.312-0.249,9.562-0.375
			c-0.562-0.624-1.406-1.437-2.531-2.438c0.437-0.375,0.875-0.78,1.312-1.219c0.875,0.813,1.718,1.61,2.531,2.391
			c0.812,0.782,1.749,1.734,2.812,2.859c-0.438,0.375-0.97,0.844-1.594,1.406c-0.562-0.812-1.031-1.375-1.406-1.688
			c-1.438,0.062-3.766,0.188-6.984,0.375c-3.22,0.188-5.297,0.406-6.234,0.656c-0.313-0.812-0.562-1.438-0.75-1.875
			c0.999-0.312,2.187-1.108,3.562-2.391c1.374-1.28,2.344-2.327,2.906-3.141h-2.719c-1.688,0-3.25,0.032-4.688,0.094V40.68
			c1.5,0.063,3.031,0.094,4.594,0.094h9.375c1.562,0,3.094-0.03,4.594-0.094v1.594c-1.5-0.062-3.157-0.094-4.969-0.094h-5.625
			c0.5,0.501,0.968,0.876,1.406,1.125C94.962,43.619,93.243,45.056,90.243,47.618z M97.087,36.462c1.374,0,2.499-0.03,3.375-0.094
			v1.688c-0.938-0.062-2.062-0.094-3.375-0.094h-4.031c-1.188,0-2.188,0.032-3,0.094v-1.688c0.812,0.063,1.781,0.094,2.906,0.094
			H97.087z"/>
		<path fill="#FFFFFF" d="M120.056,37.399c-0.126,1.688-0.375,3.281-0.75,4.781s-1.188,2.906-2.438,4.219
			c-1.251,1.312-3.562,2.656-6.938,4.031c-0.126-0.625-0.625-1.251-1.5-1.875c2.124-0.501,3.812-1.108,5.062-1.828
			c1.25-0.718,2.25-1.624,3-2.719c0.75-1.093,1.25-2.546,1.5-4.359c0.249-1.812,0.343-3.938,0.281-6.375
			c0.812,0.126,1.594,0.22,2.344,0.281C120.368,34.431,120.18,35.712,120.056,37.399z M126.9,39.743c0,0.75,0.031,1.845,0.094,3.281
			h-1.875V31.587h-11.062v11.906h-1.875c0.062-1.562,0.094-2.937,0.094-4.125v-6.281c0-1.374-0.032-2.374-0.094-3h14.812
			c-0.063,0.688-0.094,1.532-0.094,2.531V39.743z M121.931,40.024c-0.063,1.125-0.094,2.095-0.094,2.906v4.312
			c0,0.75,0.375,1.187,1.125,1.312h3.469c0.875-0.062,1.421-0.391,1.641-0.984c0.218-0.593,0.359-1.359,0.422-2.297
			c0.687,0.501,1.374,0.844,2.062,1.031c-0.313,1.376-0.703,2.344-1.172,2.906s-1.172,0.844-2.109,0.844h-4.5
			c-1.813,0-2.719-0.719-2.719-2.156v-4.125c0-1.187-0.032-2.438-0.094-3.75H121.931z"/>
		<path fill="#FFFFFF" d="M137.165,48.462c-1.844,0.312-3.141,0.594-3.891,0.844c-0.188-0.812-0.407-1.594-0.656-2.344
			c1.125-0.062,2.046-0.124,2.766-0.188c0.718-0.062,1.578-0.155,2.578-0.281v-3.656h-1.312c-1.251,0-2.313,0.063-3.188,0.188
			v-1.781c1.062,0.063,2.03,0.094,2.906,0.094h1.594v-3.094c-1.251,0.063-2.142,0.126-2.672,0.188
			c-0.532,0.063-1.11,0.157-1.734,0.281c-0.126-0.812-0.313-1.53-0.562-2.156c0.999-0.249,1.89-0.874,2.672-1.875
			c0.781-0.999,1.39-2.124,1.828-3.375h-1.406c-1.063,0-2.062,0.032-3,0.094v-1.781c0.999,0.063,1.969,0.094,2.906,0.094h6
			c1.125,0,2.124-0.03,3-0.094v1.781c-0.938-0.062-1.938-0.094-3-0.094h-3.844l1.688,1.125c-0.625,0.501-1.219,1.125-1.781,1.875
			s-1.219,1.563-1.969,2.438c2.25-0.124,4.343-0.249,6.281-0.375c-0.501-0.812-1.063-1.624-1.688-2.438
			c0.624-0.312,1.187-0.656,1.688-1.031c0.624,0.876,1.219,1.72,1.781,2.531c0.562,0.813,1.093,1.563,1.594,2.25
			c-0.562,0.438-1.188,0.844-1.875,1.219c-0.25-0.437-0.469-0.812-0.656-1.125c-1.312,0.188-2.407,0.313-3.281,0.375v3.188h1.781
			c1.062,0,1.969-0.03,2.719-0.094v1.781c-0.813-0.124-1.688-0.188-2.625-0.188h-1.875v3.469c1.749-0.249,3.593-0.53,5.531-0.844
			c-0.126,0.626-0.22,1.219-0.281,1.781C141.68,47.744,139.008,48.148,137.165,48.462z M148.462,34.774v7.031
			c0,1.312,0.031,2.407,0.094,3.281h-1.969c0.062-0.874,0.094-1.969,0.094-3.281v-7.406c0-1.249-0.032-2.25-0.094-3h2.062
			C148.524,32.213,148.462,33.338,148.462,34.774z M153.243,31.587v15.375c0,1.438-0.267,2.281-0.797,2.531
			c-0.532,0.249-1.673,0.53-3.422,0.844c-0.188-0.812-0.469-1.562-0.844-2.25c1.312,0,2.171-0.047,2.578-0.141
			c0.406-0.094,0.609-0.609,0.609-1.547V31.587c0-1.374-0.032-2.438-0.094-3.188h2.156C153.305,29.337,153.243,30.4,153.243,31.587z
			"/>
		<path fill="#FFFFFF" d="M156.337,35.337c0.875,0.063,1.749,0.094,2.625,0.094h1.969c-0.063,1.125-0.094,2.344-0.094,3.656v6.281
			c0.75-0.874,1.312-1.655,1.688-2.344c0.437,0.75,0.844,1.312,1.219,1.688c-0.625,0.626-1.312,1.376-2.062,2.25
			c-0.75,0.875-1.438,1.625-2.062,2.25c-0.562-0.562-1.031-1-1.406-1.312c0.624-0.375,0.905-0.968,0.844-1.781V36.93
			c-0.938,0-1.844,0.032-2.719,0.094V35.337z M161.868,32.055c-0.562,0.251-1.094,0.595-1.594,1.031
			c-1-1.687-1.813-2.843-2.438-3.469c0.5-0.249,0.968-0.562,1.406-0.938C159.993,29.43,160.868,30.555,161.868,32.055z
			 M167.681,30.696c-0.25,0.595-0.501,1.172-0.75,1.734c6.375,0,10.156-0.03,11.344-0.094v1.688
			c-1.251-0.062-3.063-0.094-5.438-0.094v3.094c1.749,0,3.188-0.03,4.312-0.094v1.781c-1.125-0.062-2.563-0.094-4.312-0.094v3.188
			c1.937,0,3.406-0.03,4.406-0.094v1.688c-1.125-0.062-2.594-0.094-4.406-0.094v3.188c2.562,0,4.468-0.03,5.719-0.094v1.781
			c-1.251-0.062-2.594-0.094-4.031-0.094h-7.688v2.25h-1.875c0.062-1.251,0.094-2.937,0.094-5.062v-9
			c-0.501,0.688-1.125,1.532-1.875,2.531c-0.501-0.499-1.094-0.874-1.781-1.125c0.75-0.75,1.453-1.641,2.109-2.672
			s1.25-2.156,1.781-3.375c0.53-1.219,0.921-2.391,1.172-3.516c0.624,0.375,1.406,0.656,2.344,0.844
			C168.305,29.524,167.93,30.103,167.681,30.696z M170.962,37.024V33.93h-4.125v3.094H170.962z M170.962,41.805v-3.188h-4.125v3.188
			H170.962z M170.962,46.493v-3.188h-4.125v3.188H170.962z M174.15,30.462c-0.625,0.251-1.219,0.595-1.781,1.031
			c-0.562-0.812-1.219-1.624-1.969-2.438c0.624-0.312,1.187-0.656,1.688-1.031C172.462,28.463,173.149,29.275,174.15,30.462z"/>
		<path fill="#FFFFFF" d="M186.9,30.555c1.625-0.188,2.937,0.656,3.938,2.531c0.624,2.126-0.22,4.251-2.531,6.375
			c-0.75,1.125-1.125,2.344-1.125,3.656h-1.688c-0.063-2.312,0.968-4.5,3.094-6.562c0.5-0.75,0.718-1.562,0.656-2.438
			c-0.375-1.249-1.094-1.843-2.156-1.781h-0.375c-1.312,0.063-1.938,1.031-1.875,2.906h-1.781c-0.063-2.312,0.718-3.75,2.344-4.312
			C185.649,30.743,186.15,30.619,186.9,30.555z M185.118,45.087h2.625v2.719h-2.625V45.087z"/>
	</g>
</g>
</svg>
