<?xml version="1.0" encoding="utf-8"?>
<!-- Generator: Adobe Illustrator 17.0.0, SVG Export Plug-In . SVG Version: 6.00 Build 0)  -->
<!DOCTYPE svg PUBLIC "-//W3C//DTD SVG 1.1//EN" "http://www.w3.org/Graphics/SVG/1.1/DTD/svg11.dtd">
<svg version="1.1" id="图层_1" xmlns="http://www.w3.org/2000/svg" xmlns:xlink="http://www.w3.org/1999/xlink" x="0px" y="0px"
	 width="436.314px" height="107.046px" viewBox="0 0 436.314 107.046" enable-background="new 0 0 436.314 107.046"
	 xml:space="preserve">
<g>
	<g>
		<g>
			<text transform="matrix(1 -0.0027 0.0027 1 61.8456 103.8605)" font-family="'SimHei'" font-size="17.7964">北京-上海 2015年5月20日</text>
		</g>
		<g>
			<path d="M0.018,0c5.864,2.352,11.596,4.337,17.036,6.935c4.116,1.965,7.697,2.005,11.811,0c4.998-2.436,10.306-4.238,15.48-6.312
				c0.437-0.175,0.88-0.335,1.484-0.564c0.034,0.67,0.086,1.222,0.086,1.774c0.004,18.083-0.013,36.166,0.038,54.249
				c0.004,1.287-0.382,1.905-1.565,2.295c-1.511,0.498-2.944,1.231-4.457,1.72c-1.093,0.353-1.474,0.92-1.443,2.074
				c0.081,3.029,0.03,6.062,0.031,9.094c0,0.516,0,1.033,0,1.8c-0.757-0.253-1.298-0.403-1.816-0.61
				c-4.042-1.616-8.099-3.2-12.109-4.894c-1.183-0.5-2.17-0.45-3.329,0.035c-4.064,1.7-8.166,3.308-12.256,4.944
				c-0.384,0.154-0.789,0.257-1.395,0.451c-0.043-0.629-0.106-1.123-0.107-1.618c-0.008-3.138-0.035-6.276,0.018-9.413
				c0.016-0.95-0.286-1.418-1.208-1.73C4.66,59.668,3.08,58.88,1.423,58.317C0.362,57.957-0.004,57.421,0,56.271
				c0.042-12.552,0.021-25.103,0.018-37.655C0.017,12.501,0.018,6.386,0.018,0z M9.148,38.061c0,6.703,0.001,13.406-0.002,20.109
				c0,0.741-0.087,1.385,0.891,1.76c4.015,1.536,7.979,3.206,11.992,4.748c0.569,0.218,1.374,0.174,1.954-0.049
				c3.915-1.504,7.811-3.058,11.676-4.686c0.477-0.201,1.04-0.935,1.041-1.425c0.054-13.618,0.051-27.237-0.006-40.855
				c-0.002-0.497-0.537-1.246-1.007-1.445c-3.762-1.595-7.548-3.138-11.376-4.564c-0.8-0.298-1.9-0.304-2.7-0.008
				c-3.733,1.384-7.388,2.975-11.117,4.37c-1.11,0.415-1.377,0.998-1.37,2.095C9.17,24.761,9.147,31.411,9.148,38.061z M7.51,58.89
				c0-0.84,0-1.407,0-1.974C7.502,43.72,7.516,30.525,7.457,17.329c-0.006-1.426,0.364-2.154,1.779-2.669
				c3.728-1.358,7.381-2.921,11.4-4.538C14.174,7.529,8.04,5.068,1.77,2.552c-0.039,0.594-0.09,1.005-0.09,1.415
				c-0.011,15.27-0.017,30.541-0.023,45.811c-0.001,1.916-0.049,3.833,0.035,5.745c0.02,0.46,0.373,1.129,0.758,1.311
				C3.982,57.557,5.586,58.126,7.51,58.89z M38.516,58.808c1.592-0.614,2.897-1.198,4.253-1.617c1.156-0.357,1.5-0.989,1.497-2.195
				c-0.045-16.849-0.035-33.699-0.042-50.549c0-0.561-0.048-1.123-0.083-1.887c-6.301,2.523-12.431,4.978-18.877,7.56
				c4.111,1.649,7.879,3.21,11.689,4.657c1.154,0.438,1.599,0.971,1.593,2.282c-0.059,12.863-0.032,25.726-0.029,38.589
				C38.516,56.6,38.516,57.55,38.516,58.808z M9.229,70.608c3.794-1.528,7.43-2.993,11.39-4.589
				c-3.984-1.602-7.624-3.066-11.39-4.581C9.229,64.598,9.229,67.487,9.229,70.608z M36.611,70.559c0-3.171,0-6.036,0-9.099
				c-3.79,1.529-7.392,2.981-11.329,4.569C29.238,67.611,32.853,69.057,36.611,70.559z"/>
			<path d="M135.033,38.215c1.593,3.566,3.145,7.041,4.8,10.748c-1.573,0-2.9,0.104-4.194-0.056
				c-0.456-0.056-0.996-0.683-1.218-1.175c-1.115-2.466-2.229-4.94-3.155-7.481c-0.45-1.236-1.083-1.66-2.329-1.524
				c-0.882,0.097-1.783,0.019-2.828,0.019c0,3.42,0,6.691,0,10.09c-1.501,0-2.852,0-4.323,0c0-8.133,0-16.292,0-24.739
				c0.574,0,1.183-0.006,1.793,0.001c3.293,0.035,6.605-0.134,9.875,0.165c3.488,0.32,5.815,2.527,6.325,5.371
				c0.653,3.64-0.703,6.363-4.064,8.165C135.53,37.898,135.356,38.017,135.033,38.215z M126.117,34.989
				c2.441-0.148,4.778-0.087,7.031-0.493c1.759-0.317,2.369-1.704,2.236-3.682c-0.111-1.649-1.082-2.587-2.609-2.687
				c-2.189-0.143-4.394-0.036-6.657-0.036C126.117,30.26,126.117,32.42,126.117,34.989z"/>
			<path d="M91.415,36.543c0.285-2.249,0.284-4.582,0.915-6.73c1.263-4.301,5.123-6.33,10.26-5.768
				c3.974,0.435,7.184,3.56,7.519,7.657c0.237,2.9,0.239,5.834,0.121,8.744c-0.304,7.523-6.777,9.864-12.249,8.399
				c-3.876-1.038-6.175-4.347-6.32-8.926c-0.035-1.114-0.005-2.231-0.005-3.346C91.575,36.564,91.495,36.554,91.415,36.543z
				 M105.834,36.625c0.004,0,0.008,0,0.012,0c0-1.222,0.054-2.447-0.011-3.666c-0.155-2.898-1.994-4.778-4.667-4.849
				c-2.869-0.077-4.886,1.616-5.07,4.559c-0.162,2.593-0.154,5.212,0.002,7.806c0.176,2.924,2.211,4.686,5.019,4.643
				c2.641-0.04,4.536-1.953,4.702-4.827C105.892,39.073,105.834,37.848,105.834,36.625z"/>
			<path d="M223.104,36.726c-0.184,2.052-0.125,4.164-0.603,6.145c-1.039,4.303-4.72,6.633-9.568,6.364
				c-4.444-0.247-7.874-3.044-8.269-7.356c-0.332-3.619-0.303-7.32,0.044-10.939c0.376-3.92,3.993-6.808,7.948-6.925
				c6.748-0.199,10.267,3.22,10.278,9.988c0.001,0.903,0,1.805,0,2.708C222.991,36.717,223.048,36.722,223.104,36.726z
				 M208.636,36.586c0.041,0.002,0.082,0.005,0.123,0.007c0,1.222-0.05,2.447,0.01,3.666c0.132,2.694,1.994,4.739,4.357,4.858
				c2.956,0.149,5.021-1.352,5.261-4.31c0.235-2.894,0.195-5.838-0.05-8.733c-0.208-2.452-2.051-3.882-4.417-3.959
				c-2.653-0.086-4.35,1.031-4.896,3.573C208.682,33.275,208.751,34.95,208.636,36.586z"/>
			<path d="M294.836,36.502c-0.092,1.959,0.058,3.967-0.325,5.867c-0.978,4.849-5.516,7.643-10.625,6.768
				c-4.626-0.792-7.217-3.542-7.603-8.621c-0.228-3-0.154-6.063,0.175-9.055c0.553-5.037,4.428-7.735,10.22-7.445
				c4.375,0.22,7.848,3.796,8.05,8.339c0.061,1.378,0.009,2.761,0.009,4.141C294.77,36.5,294.803,36.501,294.836,36.502z
				 M290.327,36.657c0.018,0,0.036,0,0.055,0c0-1.275,0.069-2.555-0.014-3.824c-0.192-2.931-2.126-4.741-4.948-4.724
				c-2.748,0.017-4.656,1.787-4.793,4.686c-0.12,2.544-0.122,5.104,0.003,7.648c0.137,2.774,2.089,4.621,4.676,4.676
				c2.766,0.059,4.698-1.613,4.998-4.483C290.441,39.323,290.327,37.984,290.327,36.657z"/>
			<path d="M69.02,48.881c-1.508,0-2.807,0-4.195,0c0-8.235,0-16.392,0-24.946c4.195,0.187,8.364,0.007,12.399,0.657
				c3.925,0.631,5.956,3.965,5.646,7.865c-0.289,3.639-3.155,6.541-6.972,6.901c-1.74,0.164-3.506,0.16-5.254,0.089
				c-1.228-0.05-1.699,0.296-1.652,1.594C69.086,43.587,69.02,46.138,69.02,48.881z M69.107,35.501c2.035,0,3.947,0.094,5.846-0.025
				c2.041-0.128,3.45-1.709,3.502-3.672c0.048-1.809-1.14-3.425-2.953-3.571c-2.091-0.168-4.205-0.039-6.395-0.039
				C69.107,30.651,69.107,32.971,69.107,35.501z"/>
			<path d="M182.668,48.893c-1.581,0-2.841,0-4.224,0c0-8.224,0-16.379,0-24.663c5.407,0,10.799,0,16.498,0
				c0,1.048,0.095,2.147-0.063,3.209c-0.043,0.286-0.852,0.645-1.314,0.652c-3.557,0.054-7.116,0.03-10.938,0.03
				c0,2.088-0.04,4.081,0.057,6.068c0.011,0.221,0.8,0.57,1.234,0.577c2.974,0.051,5.949,0.027,9.053,0.027c0,1.218,0,2.348,0,3.682
				c-3.359,0-6.729,0-10.302,0C182.668,42.031,182.668,45.396,182.668,48.893z"/>
			<path d="M149.752,28.026c0-1.451,0-2.596,0-3.923c1.932,0,3.776,0.001,5.62,0c3.506-0.002,7.014,0.068,10.517-0.04
				c1.508-0.046,2.175,0.36,1.952,1.925c-0.08,0.562-0.013,1.145-0.013,1.91c-2.336,0-4.536,0-6.897,0c0,7.064,0,13.939,0,20.938
				c-1.506,0-2.852,0-4.399,0c0-6.865,0-13.746,0-20.81C154.191,28.026,152.04,28.026,149.752,28.026z"/>
			<path d="M233.535,24.188c1.413,0,2.718,0,4.212,0c0,6.916,0,13.787,0,20.839c4.191,0,8.2,0,12.327,0c0,1.371,0,2.559,0,3.842
				c-5.527,0-10.972,0-16.539,0C233.535,40.69,233.535,32.538,233.535,24.188z"/>
			<path d="M309.597,48.759c-1.526,0.5-1.825-0.05-1.818-1.24c0.038-7.071,0-14.141,0.047-21.212
				c0.005-0.733,0.193-1.865,0.664-2.112c1.014-0.532,1.537,0.526,2.026,1.268c4.21,6.385,8.413,12.775,12.621,19.162
				c0.227,0.345,0.478,0.674,0.993,1.398c0-7.504,0-14.575,0-21.7c0.888-0.179,1.709-0.623,1.711,0.675
				c0.016,7.914,0.008,15.829,0.008,23.741c-1.228,0.527-1.902,0.071-2.546-0.912c-4.161-6.354-8.372-12.676-12.569-19.007
				c-0.28-0.423-0.584-0.83-1.139-1.614C309.597,34.675,309.597,41.707,309.597,48.759z"/>
			<path d="M265.232,24.102c0,8.37,0,16.495,0,24.742c-1.377,0-2.728,0-4.276,0c-0.028-0.543-0.081-1.104-0.081-1.665
				c-0.006-7.129,0.026-14.258-0.031-21.387c-0.01-1.295,0.303-1.87,1.674-1.708C263.348,24.183,264.2,24.102,265.232,24.102z"/>
			<path d="M381.947,24.34c0,3.723,0,7.379,0,11.144c4.451,0,8.779,0,13.338,0c0-2.595-0.001-5.178,0.001-7.761
				c0.001-0.957-0.048-1.92,0.052-2.867c0.029-0.272,0.533-0.725,0.758-0.692c0.345,0.052,0.672,0.424,0.934,0.723
				c0.107,0.123,0.03,0.41,0.03,0.623c0.001,7.444,0.002,14.887-0.003,22.331c0,0.31-0.055,0.62-0.093,1.032
				c-0.511,0.026-0.966,0.049-1.655,0.084c0-3.943,0-7.783,0-11.793c-4.359,0-8.492-0.024-12.623,0.055
				c-0.268,0.005-0.735,0.796-0.745,1.23c-0.067,2.87-0.035,5.742-0.035,8.613c0,0.572,0,1.145,0,1.718
				c-1.092,0.345-1.644,0.215-1.64-0.967c0.022-7.497,0.025-14.994,0.004-22.491C380.267,24.192,380.732,23.924,381.947,24.34z"/>
			<path d="M367.133,37.868c-1.599,0-3.027,0.054-4.446-0.037c-0.371-0.024-0.713-0.5-1.068-0.769
				c0.339-0.226,0.672-0.637,1.017-0.648c2.013-0.062,4.03-0.03,6.005-0.03c1.364,4.434-0.364,9.732-3.741,11.709
				c-5.839,3.419-12.709-0.056-13.128-6.755c-0.205-3.283-0.166-6.598,0.017-9.884c0.206-3.709,2.661-6.464,6.105-7.279
				c3.927-0.93,7.69,0.476,9.633,3.608c0.133,0.215,0.213,0.462,0.377,0.827c-0.521,0.243-0.97,0.453-1.457,0.68
				c-1.438-2.409-3.358-3.761-6.152-3.746c-3.967,0.022-6.781,2.611-6.895,6.599c-0.087,3.03-0.095,6.066,0.002,9.095
				c0.126,3.912,3.034,6.534,7.016,6.483c3.724-0.048,6.614-2.921,6.71-6.687C367.153,40.08,367.133,39.125,367.133,37.868z"/>
			<path d="M416.907,48.865c-0.748,0-1.202,0-1.772,0c0-7.731,0-15.366,0-23.198c-2.519,0-4.931,0-7.287,0
				c-0.454-1.257-0.043-1.586,1.03-1.578c4.728,0.033,9.456,0.027,14.184-0.002c0.98-0.006,1.43,0.281,1.043,1.472
				c-2.283,0-4.646,0-7.198,0C416.907,33.39,416.907,41.059,416.907,48.865z"/>
			<path d="M338.36,48.808c-0.032-0.432-0.082-0.797-0.082-1.161c-0.005-7.337-0.011-14.675,0.01-22.012
				c0.002-0.605-0.308-1.62,0.819-1.454c0.335,0.049,0.767,0.973,0.771,1.499c0.05,7.284,0.025,14.568,0.044,21.852
				C339.924,48.542,339.797,49.268,338.36,48.808z"/>
			<path d="M435.683,39.523c-0.245-0.689-0.49-1.378-0.712-1.999c-0.372,0.33-0.84,0.747-1.308,1.163
				c-0.41-0.497-0.821-0.995-1.331-1.613c-0.067,0.799-0.129,1.534-0.19,2.273c-1.247-0.171-1.454-1.453-0.938-5.639
				c1.947,0.245,1.455,2.355,2.54,3.165c1.133-0.719,0.571-2.911,2.571-3.201c0,1.976,0,3.812,0,5.648
				C436.103,39.386,435.893,39.455,435.683,39.523z"/>
			<path d="M427.534,34.957c-0.532-0.049-0.909-0.026-1.242-0.137c-0.181-0.06-0.358-0.331-0.404-0.537
				c-0.033-0.15,0.149-0.502,0.238-0.503c1.361-0.011,2.724,0.007,4.082,0.081c0.081,0.004,0.133,0.534,0.215,0.889
				c-0.558,0.076-1.021,0.139-1.665,0.227c0,1.428,0,2.885,0,4.361c-1.723,0.186-1.143-0.99-1.206-1.669
				C427.475,36.834,427.534,35.985,427.534,34.957z"/>
		</g>
		<g>
			<text transform="matrix(1 0 0 1 63.5148 77.8984)" font-family="'SimHei'" font-size="17.7958">全球最大的广告创意评比</text>
		</g>
	</g>
	<g>
		<g>
			<path d="M418.687,80.346c-0.144,0.18-0.26,0.334-0.385,0.482c-0.424,0.5-0.899,0.938-1.55,1.115
				c-0.601,0.164-1.191,0.096-1.753-0.169c-0.635-0.3-1.181-0.72-1.639-1.256c-0.812-0.952-1.536-1.964-2.098-3.086
				c-0.166-0.331-0.228-0.717-0.536-0.969c-0.023-0.019-0.044-0.039-0.063-0.056c-0.496,0.819-0.986,1.631-1.479,2.442
				c-0.667,1.098-1.435,2.121-2.373,2.999c-0.657,0.615-1.39,1.13-2.285,1.362c-0.762,0.198-1.518,0.142-2.259-0.075
				c-0.432-0.127-0.757-0.442-1.003-0.807c-0.243-0.359-0.434-0.754-0.65-1.133c-0.303-0.532-0.304-0.619-0.995-0.342
				c-0.864,0.347-0.877,0.437-0.826,1.423c0.078,1.502,0.183,3.007,0.164,4.509c-0.022,1.817-0.233,3.629-0.837,5.355
				c-0.304,0.868-0.768,1.681-1.161,2.517c-0.266,0.566-1.372,0.997-1.927,0.772c-0.268-0.109-0.467-0.247-0.601-0.509
				c-0.447-0.871-0.627-1.8-0.65-2.77c-0.058-2.379,0.387-4.658,1.322-6.846c0.34-0.797,0.652-1.607,0.975-2.411
				c0.02-0.05,0.053-0.105,0.047-0.154c-0.016-0.117-0.018-0.266-0.09-0.336c-0.055-0.053-0.216-0.029-0.317,0.002
				c-0.793,0.247-1.583,0.506-2.375,0.758c-0.118,0.037-0.243,0.051-0.365,0.078c-0.465,0.103-0.823-0.219-0.712-0.686
				c0.082-0.343,0.228-0.675,0.376-0.998c0.323-0.704,0.3-0.799-0.379-1.169c-0.178-0.097-0.36-0.185-0.54-0.278
				c-0.18-0.092-0.359-0.185-0.571-0.294c-0.136,0.203-0.282,0.41-0.418,0.624c-0.601,0.948-1.341,1.762-2.303,2.352
				c-0.875,0.536-1.84,0.812-2.849,0.967c-0.597,0.092-1.182,0.023-1.767-0.067c-0.811-0.124-1.417-0.591-1.9-1.219
				c-0.682-0.886-1.221-1.844-1.323-2.99c-0.055-0.622,0.059-1.227,0.219-1.822c0.411-1.531,1.143-2.896,2.217-4.061
				c0.662-0.718,1.427-1.326,2.262-1.839c0.311-0.191,0.296-0.236,0.248-0.59c-0.061-0.451-0.08-0.91-0.087-1.366
				c-0.003-0.243,0.123-0.458,0.336-0.586c0.298-0.178,0.597-0.373,0.921-0.488c0.548-0.194,0.997,0.097,1.422,0.399
				c1.055,0.749,1.804,1.778,2.362,2.905c0.535,1.082,0.932,2.243,1.085,3.459c0.079,0.625,0.095,1.257,0.147,1.885
				c0.008,0.095,0.037,0.203,0.094,0.275c0.509,0.643,1.193,1.038,1.943,1.328c0.078,0.03,0.228-0.028,0.3-0.093
				c0.282-0.257,0.536-0.546,0.821-0.799c0.237-0.211,0.486-0.421,0.762-0.573c0.65-0.357,1.386-0.067,1.652,0.622
				c0.156,0.404,0.248,0.467,0.673,0.46c0.547-0.009,0.781,0.203,0.831,0.751c0.051,0.57,0.057,0.575,0.573,0.295
				c0.664-0.36,1.332-0.719,2.081-0.868c0.575-0.115,0.98-0.01,1.265,0.59c0.274,0.576,0.592,1.131,0.897,1.691
				c0.07,0.129,0.158,0.252,0.257,0.361c0.255,0.284,0.583,0.346,0.932,0.187c0.709-0.324,1.225-0.868,1.693-1.474
				c1.309-1.696,2.305-3.565,3.115-5.543c0.362-0.883,0.328-1.774,0.157-2.68c-0.127-0.673-0.275-1.343-0.368-2.02
				c-0.04-0.291-0.01-0.614,0.078-0.893c0.066-0.211,0.244-0.421,0.428-0.555c0.425-0.31,0.92-0.487,1.438-0.584
				c0.485-0.091,0.851,0.186,0.888,0.678c0.065,0.855,0.125,1.71,0.182,2.565c0.147,2.196,0.651,4.298,1.64,6.275
				c0.449,0.898,0.993,1.73,1.71,2.439c0.099,0.098,0.206,0.192,0.318,0.275c0.302,0.223,0.507,0.19,0.728-0.119
				c0.251-0.351,0.3-0.764,0.331-1.176c0.021-0.272,0.008-0.546,0.004-0.819c-0.003-0.187,0.056-0.337,0.224-0.43
				c0.498-0.275,1.022-0.466,1.599-0.43c0.408,0.025,0.712,0.261,0.958,0.567c0.537,0.669,1.064,1.345,1.599,2.016
				c0.116,0.146,0.242,0.285,0.372,0.42c0.202,0.209,0.317,0.177,0.4-0.099c0.189-0.629,0.189-1.276,0.193-1.923
				c0.001-0.249,0.01-0.5,0.046-0.746c0.072-0.494,0.344-0.862,0.813-1.029c0.363-0.129,0.748-0.203,1.13-0.266
				c0.634-0.106,1.272-0.12,1.907,0.01c0.245,0.05,0.264,0.097,0.165,0.331c-0.172,0.405-0.482,0.688-0.874,0.836
				c-0.478,0.181-0.625,0.5-0.682,0.985c-0.128,1.077-0.45,2.106-0.871,3.111c-0.342,0.818-0.919,1.261-1.77,1.449
				c-0.874,0.194-1.539-0.102-2.1-0.74c-0.319-0.363-0.631-0.733-0.957-1.09C419.111,80.742,418.902,80.556,418.687,80.346z
				 M386.202,82.222c0.332-0.071,0.677-0.107,0.994-0.22c0.535-0.191,0.945-0.552,1.252-1.039c0.375-0.593,0.747-1.183,0.95-1.864
				c0.09-0.302,0.113-0.573-0.149-0.811c-0.108-0.098-0.187-0.228-0.275-0.347c-0.516-0.702-1.038-1.4-1.54-2.111
				c-0.225-0.32-0.375-0.681-0.409-1.08c-0.005-0.06-0.026-0.123-0.054-0.177c-0.248-0.492-0.506-0.978-0.743-1.474
				c-0.072-0.15-0.143-0.259-0.32-0.228c-0.126,0.022-0.274,0.031-0.367,0.104c-0.439,0.344-0.911,0.656-1.216,1.146
				c-0.589,0.946-0.975,1.977-1.266,3.044c-0.197,0.721-0.299,1.458,0.008,2.177c0.21,0.493,0.435,0.982,0.697,1.449
				C384.291,81.731,385.131,82.158,386.202,82.222z M396.782,85.651c-0.02-0.004-0.041-0.008-0.061-0.013
				c-0.121,0.313-0.256,0.621-0.36,0.939c-0.397,1.215-0.646,2.463-0.804,3.731c-0.068,0.539-0.076,1.072,0.071,1.597
				c0.028,0.101,0.116,0.186,0.176,0.278c0.063-0.082,0.142-0.156,0.185-0.247c0.271-0.567,0.395-1.173,0.489-1.791
				c0.145-0.946,0.317-1.888,0.306-2.851C396.777,86.747,396.782,86.199,396.782,85.651z M396.233,79.8
				c-0.309,0.383-0.711,0.542-1.154,0.647c-0.362,0.086-0.443,0.228-0.476,0.595c-0.015,0.171,0.055,0.205,0.203,0.18
				c0.267-0.045,0.534-0.092,0.803-0.124C396.283,81.02,396.58,80.443,396.233,79.8z"/>
			<path d="M425.579,99.518c0.018,0.927,0.231,1.819,0.534,2.688c0.189,0.541,0.406,1.077,0.667,1.587
				c0.222,0.435,0.488,0.424,0.755,0.001c0.401-0.636,0.696-1.324,0.881-2.051c0.488-1.913,0.989-3.823,1.425-5.747
				c0.259-1.144,0.403-2.314,0.605-3.471c0.136-0.781,0.288-1.56,0.425-2.341c0.22-1.256,0.42-2.517,0.655-3.77
				c0.25-1.33,0.53-2.655,0.799-3.982c0.018-0.091,0.069-0.176,0.078-0.267c0.009-0.095,0.022-0.239-0.031-0.281
				c-0.087-0.07-0.226-0.1-0.343-0.101c-0.103-0.001-0.205,0.067-0.309,0.097c-0.534,0.154-0.97-0.007-1.31-0.43
				c-0.396-0.492-0.791-0.985-1.162-1.495c-0.269-0.371-0.548-0.705-0.983-0.902c-0.345-0.155-0.558-0.693-0.434-1.041
				c0.04-0.111,0.158-0.218,0.267-0.277c0.341-0.185,0.696-0.345,1.044-0.517c0.519-0.255,1.005-0.187,1.385,0.234
				c0.359,0.397,0.659,0.847,0.982,1.275c0.197,0.261,0.38,0.533,0.587,0.787c0.266,0.326,0.492,0.282,0.645-0.108
				c0.062-0.159,0.141-0.314,0.187-0.477c0.242-0.877,1.566-1.417,2.384-1.192c0.496,0.136,0.684,0.459,0.552,1.026
				c-0.45,1.93-0.921,3.856-1.354,5.79c-0.377,1.684-0.705,3.378-1.07,5.065c-0.773,3.571-1.532,7.146-2.346,10.708
				c-0.325,1.424-0.791,2.817-1.401,4.149c-0.264,0.576-0.587,1.149-0.998,1.625c-0.423,0.489-1.031,0.768-1.688,0.882
				c-0.107,0.019-0.216,0.028-0.324,0.046c-0.651,0.106-1.109-0.208-1.477-0.693c-0.646-0.853-0.995-1.84-1.266-2.862
				c-0.29-1.096-0.438-2.213-0.513-3.341c-0.005-0.076-0.01-0.164,0.022-0.228c0.292-0.592,0.694-1.053,1.402-1.129
				c0.085-0.009,0.172-0.009,0.256,0c0.38,0.039,0.481,0.157,0.471,0.535C425.577,99.377,425.579,99.448,425.579,99.518z"/>
			<path d="M402.045,66.244c0.197,0.003,0.518,0.059,0.735,0.324c0.092,0.112,0.174,0.305,0.142,0.431
				c-0.154,0.605-0.447,1.168-0.916,1.566c-0.381,0.323-0.904,0.427-1.422,0.385c-0.183-0.015-0.39-0.297-0.428-0.535
				c-0.029-0.182-0.049-0.369-0.103-0.544c-0.123-0.399-0.007-0.707,0.296-0.98C400.753,66.528,401.414,66.243,402.045,66.244z"/>
		</g>
		<g>
			<text transform="matrix(1 0 0 1 307.7789 89.9453)" font-family="'SimHei'" font-size="17.7958">承办方：</text>
		</g>
	</g>
	<line fill="none" stroke="#000000" stroke-miterlimit="10" x1="286.061" y1="60.743" x2="286.061" y2="105.973"/>
</g>
</svg>
