<?xml version="1.0" encoding="utf-8"?>
<!-- Generator: Adobe Illustrator 17.0.0, SVG Export Plug-In . SVG Version: 6.00 Build 0)  -->
<!DOCTYPE svg PUBLIC "-//W3C//DTD SVG 1.1//EN" "http://www.w3.org/Graphics/SVG/1.1/DTD/svg11.dtd">
<svg version="1.1" id="图层_1" xmlns="http://www.w3.org/2000/svg" xmlns:xlink="http://www.w3.org/1999/xlink" x="0px" y="0px"
	 width="336.639px" height="78.455px" viewBox="0 0 336.639 78.455" enable-background="new 0 0 336.639 78.455"
	 xml:space="preserve">
<g>
	<g>
		<path fill="#FFFFFF" d="M54.806,29.993c0.562,0,1.343-0.03,2.344-0.094v1.688c-0.813-0.062-1.594-0.094-2.344-0.094h-6.375v1.969
			h6.844c-0.063,1.063-0.094,2.501-0.094,4.312c0,1.751,0.031,3.157,0.094,4.219H48.15c-0.188,1.312-0.625,2.531-1.312,3.656
			c0.938,0.562,2.297,1.063,4.078,1.5c1.781,0.438,3.155,0.688,4.125,0.75c0.968,0.062,1.922,0.094,2.859,0.094
			c-0.375,0.312-0.688,0.969-0.938,1.969c-1.688-0.126-3.562-0.422-5.625-0.891s-3.907-1.141-5.531-2.016
			c-0.625,0.562-1.547,1.14-2.766,1.734c-1.219,0.594-3.016,1.078-5.391,1.453c-0.25-0.688-0.562-1.281-0.938-1.781
			c1.812-0.062,3.39-0.328,4.734-0.797c1.343-0.469,2.328-0.984,2.953-1.547c-1.188-0.812-2.438-1.843-3.75-3.094
			c0.375-0.249,0.75-0.593,1.125-1.031h-2.25c0.062-1.187,0.094-2.655,0.094-4.406c0-1.812-0.032-3.188-0.094-4.125h7.125v-1.969
			h-5.812c-1,0-2.062,0.032-3.188,0.094v-1.688c1.125,0.063,2.156,0.094,3.094,0.094H54.806z M46.65,36.837v-1.969h-5.156v1.969
			H46.65z M46.556,40.399c0.062-0.687,0.094-1.374,0.094-2.062h-5.156v2.062H46.556z M42.056,41.993
			c1.125,1.188,2.25,2.126,3.375,2.812c0.5-0.938,0.812-1.875,0.938-2.812H42.056z M53.306,40.399v-2.062h-4.875
			c0,0.438-0.032,1.125-0.094,2.062H53.306z M53.306,36.837v-1.969h-4.875v1.969H53.306z"/>
		<path fill="#FFFFFF" d="M61.556,39.087c1.187-0.062,2.625-0.312,4.313-0.75c1.688-0.437,3-0.905,3.938-1.406
			c-0.75-0.999-1.594-1.875-2.531-2.625c0.5-0.375,0.905-0.78,1.219-1.219c1.187,1.125,2.156,2.126,2.906,3
			c0.938-0.562,1.781-1.172,2.531-1.828s1.406-1.359,1.969-2.109h-8.062c-1.312,1.125-2.845,2.25-4.594,3.375
			c-0.375-0.562-0.844-0.999-1.406-1.312c1.688-0.75,3.218-1.718,4.594-2.906c1.374-1.187,2.281-2.218,2.719-3.094
			c0.5,0.375,1.031,0.75,1.594,1.125c-0.313,0.251-0.813,0.72-1.5,1.406h9.75c-1.813,2.625-3.595,4.532-5.344,5.719
			c-1.75,1.188-3.454,2.079-5.109,2.672c-1.657,0.595-3.579,1.172-5.766,1.734C62.524,40.244,62.118,39.649,61.556,39.087z
			 M75.431,37.868c-0.562,0.501-1.094,0.97-1.594,1.406h7.781c-0.75,1.875-1.734,3.501-2.953,4.875
			c-1.219,1.376-2.578,2.438-4.078,3.188s-3.157,1.374-4.969,1.875c-1.813,0.5-4.031,0.875-6.656,1.125
			c-0.25-0.688-0.625-1.345-1.125-1.969c1.562,0.062,3.422-0.094,5.578-0.469s4.109-0.968,5.859-1.781
			c-1.125-1.125-2.062-2.03-2.812-2.719c0.5-0.375,0.938-0.78,1.312-1.219c0.875,0.876,1.875,1.907,3,3.094
			c0.812-0.499,1.578-1.14,2.297-1.922c0.718-0.78,1.327-1.671,1.828-2.672h-6.469c-0.625,0.501-1.5,1.11-2.625,1.828
			c-1.125,0.72-2.688,1.517-4.688,2.391c-0.313-0.624-0.719-1.125-1.219-1.5c2.063-0.624,4.015-1.594,5.859-2.906
			c1.843-1.312,3.141-2.562,3.891-3.75C74.149,37.244,74.742,37.619,75.431,37.868z"/>
		<path fill="#FFFFFF" d="M89.587,32.899v12.844c0,1.875,0.031,3.343,0.094,4.406h-2.062c0.188-1.125,0.281-2.625,0.281-4.5V36.18
			c-0.75,1.5-1.469,2.751-2.156,3.75c-0.375-0.624-0.844-1.125-1.406-1.5c0.687-0.75,1.531-2.077,2.531-3.984
			c0.999-1.905,1.749-3.921,2.25-6.047c0.687,0.251,1.437,0.501,2.25,0.75C90.993,29.524,90.399,30.775,89.587,32.899z
			 M106.181,33.18c-1.251-0.062-3.719-0.094-7.406-0.094c-3.688,0-6.188,0.032-7.5,0.094v-1.594h14.906V33.18z M104.775,36.555
			c-1.063-0.062-3-0.094-5.812-0.094s-4.907,0.032-6.281,0.094v-1.594c1.187,0.063,3.218,0.094,6.094,0.094
			c2.937,0,4.937-0.03,6-0.094V36.555z M104.775,39.837c-0.876-0.062-2.782-0.094-5.719-0.094c-2.875,0-5.001,0.032-6.375,0.094
			v-1.594c1.312,0.063,3.437,0.094,6.375,0.094c3,0,4.906-0.03,5.719-0.094V39.837z M104.493,45.649
			c0,1.688,0.031,2.968,0.094,3.844h-1.781v-1.594h-8.062v1.969h-1.875c0.062-0.938,0.094-2.25,0.094-3.938
			c0-1.749-0.032-3.094-0.094-4.031h11.719C104.524,42.649,104.493,43.9,104.493,45.649z M102.806,46.399v-3.188h-8.062v3.188
			H102.806z M99.056,29.524c0.188,0.438,0.375,0.907,0.562,1.406c-0.562,0.188-1.125,0.345-1.688,0.469
			c-0.438-1.312-0.813-2.124-1.125-2.438c0.624-0.249,1.187-0.469,1.688-0.656C98.681,28.68,98.868,29.088,99.056,29.524z"/>
		<path fill="#FFFFFF" d="M110.4,48.649c-0.562-0.25-1.188-0.469-1.875-0.656c0.75-1.062,1.374-2.625,1.875-4.688
			c0.5,0.188,1.093,0.345,1.781,0.469C111.431,46.088,110.836,47.712,110.4,48.649z M117.806,30.837h9.469
			c-0.063,1.251-0.094,2.938-0.094,5.062c0,2.062,0.031,3.813,0.094,5.25h-15.562c0.062-1.437,0.094-3.188,0.094-5.25
			c0-2.124-0.032-3.812-0.094-5.062h4.406c0.188-0.499,0.375-1.406,0.562-2.719c0.687,0.188,1.468,0.375,2.344,0.562
			C118.399,29.618,117.993,30.338,117.806,30.837z M125.4,33.837v-1.688h-11.812v1.688H125.4z M125.4,36.837v-1.688h-11.812v1.688
			H125.4z M125.4,39.837v-1.688h-11.812v1.688H125.4z M116.118,46.399c0,0.75,0.078,1.204,0.234,1.359
			c0.155,0.155,0.64,0.234,1.453,0.234h4.688c0.437,0,0.734-0.094,0.891-0.281c0.155-0.188,0.265-0.844,0.328-1.969
			c0.5,0.313,1.156,0.562,1.969,0.75c-0.313,1.251-0.595,2.03-0.844,2.344c-0.25,0.312-0.813,0.5-1.688,0.562h-6.938
			c-1-0.062-1.579-0.328-1.734-0.797c-0.157-0.469-0.22-1.14-0.188-2.016c0.031-0.874,0.015-2.156-0.047-3.844h1.969
			C116.149,44.43,116.118,45.649,116.118,46.399z M121.65,44.993c-0.438,0.188-1,0.501-1.688,0.938
			c-0.438-1.062-0.97-1.999-1.594-2.812c0.562-0.312,1.093-0.624,1.594-0.938C120.649,43.181,121.212,44.119,121.65,44.993z
			 M130.368,46.587c-0.625,0.438-1.157,0.876-1.594,1.312c-1.188-1.812-2.282-3.218-3.281-4.219c0.5-0.312,0.999-0.718,1.5-1.219
			C128.055,43.838,129.18,45.213,130.368,46.587z"/>
	</g>
</g>
</svg>
