<?xml version="1.0" encoding="utf-8"?>
<!-- Generator: Adobe Illustrator 17.0.0, SVG Export Plug-In . SVG Version: 6.00 Build 0)  -->
<!DOCTYPE svg PUBLIC "-//W3C//DTD SVG 1.1//EN" "http://www.w3.org/Graphics/SVG/1.1/DTD/svg11.dtd">
<svg version="1.1" id="图层_1" xmlns="http://www.w3.org/2000/svg" xmlns:xlink="http://www.w3.org/1999/xlink" x="0px" y="0px"
	 width="336.639px" height="78.455px" viewBox="0 0 336.639 78.455" enable-background="new 0 0 336.639 78.455"
	 xml:space="preserve">
<g>
	<g>
		<path fill="#FFFFFF" d="M45.618,43.962c-0.813,1.031-2.001,2.297-3.562,3.797c1.812-0.188,3.5-0.358,5.062-0.516
			c1.562-0.155,3.281-0.358,5.156-0.609c-1.375-1.624-2.344-2.655-2.906-3.094c0.562-0.249,1.156-0.624,1.781-1.125
			c0.75,0.813,1.625,1.798,2.625,2.953c0.999,1.157,2.062,2.329,3.188,3.516c-0.75,0.375-1.438,0.781-2.062,1.219
			c-0.501-0.75-1.063-1.469-1.688-2.156c-4.312,0.437-7.422,0.828-9.328,1.172c-1.907,0.343-3.267,0.671-4.078,0.984
			c-0.25-0.688-0.595-1.438-1.031-2.25c0.75-0.188,1.89-1.062,3.422-2.625c1.531-1.562,2.609-3.155,3.234-4.781h-4.594
			c-1.75,0-3.25,0.032-4.5,0.094v-1.688c1.312,0.063,2.812,0.094,4.5,0.094h5.719V34.54h-3.375c-1.563,0-2.938,0.032-4.125,0.094
			v-1.688c1.187,0.063,2.531,0.094,4.031,0.094h3.469v-1.875c0-0.938-0.032-1.843-0.094-2.719h2.25
			c-0.126,0.813-0.188,1.657-0.188,2.531v2.062h2.812c1.562,0,3.031-0.03,4.406-0.094v1.688c-1.375-0.062-2.812-0.094-4.312-0.094
			h-2.906v4.406h5.719c1.5,0,2.937-0.03,4.312-0.094v1.688c-1.375-0.062-2.812-0.094-4.312-0.094h-8.156
			c0.687,0.501,1.28,0.938,1.781,1.312C47.18,42.197,46.43,42.93,45.618,43.962z"/>
		<path fill="#FFFFFF" d="M64.556,32.102c1.187-1.875,1.843-3.218,1.969-4.031c0.938,0.375,1.812,0.656,2.625,0.844
			c-0.562,0.562-1.188,1.47-1.875,2.719h9.469c1.374,0,2.78-0.03,4.219-0.094v1.594c-1.312-0.062-2.719-0.094-4.219-0.094H73.65
			v3.844c2.375,0,4.468-0.03,6.281-0.094v1.594c-1.875-0.062-3.97-0.094-6.281-0.094v4.406h4.781c1.374,0,2.656-0.03,3.844-0.094
			v1.594c-1.125-0.062-2.407-0.094-3.844-0.094H73.65v2.156c0,1.438,0.031,2.75,0.094,3.938h-2.062
			c0.062-1.188,0.094-2.438,0.094-3.75v-2.344H65.4c-1.75,0-3.407,0.032-4.969,0.094v-1.594c1.5,0.063,2.968,0.094,4.406,0.094
			c0-2.438-0.032-4.374-0.094-5.812h7.031V33.04h-5.344c-1.312,2.001-2.5,3.626-3.563,4.875c-0.688-0.562-1.406-0.905-2.156-1.031
			C62.086,35.571,63.368,33.977,64.556,32.102z M71.775,42.696V38.29h-5.156v4.406H71.775z"/>
		<path fill="#FFFFFF" d="M90.525,37.821c-0.438,0.501-0.876,1.031-1.312,1.594c-1.5-1.187-2.938-2.218-4.312-3.094
			c0.437-0.499,0.844-0.999,1.219-1.5C87.431,35.697,88.899,36.696,90.525,37.821z M88.65,46.446
			c-0.75,1.562-1.312,2.687-1.688,3.375c-0.625-0.501-1.312-0.906-2.062-1.219c0.5-0.562,1.125-1.437,1.875-2.625
			c0.75-1.187,1.688-3.124,2.812-5.812c0.562,0.562,1.093,0.97,1.594,1.219C90.243,43.197,89.4,44.885,88.65,46.446z M91.462,32.009
			c-0.625,0.501-1.094,1.001-1.406,1.5c-0.938-0.999-2.219-2.03-3.844-3.094c0.437-0.437,0.875-0.905,1.312-1.406
			C88.837,29.885,90.15,30.884,91.462,32.009z M104.868,30.884c-1,0.126-1.922,0.251-2.766,0.375
			c-0.844,0.126-1.767,0.251-2.766,0.375v3.937h4.031c0.999,0,1.937-0.03,2.812-0.094v1.688c-0.75-0.062-1.688-0.094-2.812-0.094
			h-4.031v3.938h5.25c-0.063,1.188-0.094,2.782-0.094,4.781c0,2.001,0.031,3.375,0.094,4.125h-1.875v-1.781h-8.156v1.875h-1.781
			c0.062-0.812,0.094-2.312,0.094-4.5c0-2.25-0.032-3.75-0.094-4.5h4.781v-3.938h-3c-1.375,0-2.563,0.032-3.562,0.094v-1.688
			c1.062,0.063,2.281,0.094,3.656,0.094h2.906v-3.562c-1.688,0.188-3.313,0.407-4.875,0.656c-0.063-0.687-0.313-1.28-0.75-1.781
			c1.374,0.063,3.483-0.124,6.328-0.562c2.843-0.437,4.608-0.844,5.297-1.219C103.868,29.665,104.306,30.26,104.868,30.884z
			 M102.712,46.634v-4.125h-8.156v4.125H102.712z"/>
		<path fill="#FFFFFF" d="M108.431,36.509c0.938,0.063,2.062,0.094,3.375,0.094h3.562c1.125,0,2.405-0.03,3.844-0.094v1.688
			c-1.438-0.062-2.688-0.094-3.75-0.094h-1.031c-0.375,1.001-0.797,2.062-1.266,3.188s-1.017,2.25-1.641,3.375
			c2.438-0.249,4.28-0.499,5.531-0.75c-0.313-0.75-0.813-1.688-1.5-2.812c0.687-0.375,1.187-0.687,1.5-0.938
			c0.624,1.125,1.156,2.079,1.594,2.859c0.437,0.782,0.905,1.734,1.406,2.859c-0.501,0.313-1.063,0.626-1.688,0.938
			c-0.25-0.562-0.469-1.031-0.656-1.406c-2.001,0.313-3.609,0.562-4.828,0.75s-2.266,0.438-3.141,0.75
			c-0.25-0.624-0.562-1.219-0.938-1.781c0.812-0.499,1.547-1.5,2.203-3s1.14-2.843,1.453-4.031h-0.656
			c-1.312,0-2.438,0.032-3.375,0.094V36.509z M114.9,31.259c1.062,0,2.25-0.03,3.562-0.094v1.781
			c-1.312-0.062-2.5-0.094-3.562-0.094h-2.25c-1,0-1.969,0.032-2.906,0.094v-1.781c0.875,0.063,1.812,0.094,2.812,0.094H114.9z
			 M125.025,28.821c-0.126,0.626-0.204,1.329-0.234,2.109c-0.032,0.782-0.047,1.734-0.047,2.859h5.25
			c-0.063,0.813-0.126,1.72-0.188,2.719l-0.469,10.688c-0.188,1.25-0.703,2.016-1.547,2.297s-1.797,0.483-2.859,0.609
			c-0.188-0.75-0.501-1.438-0.938-2.062c1.374,0.062,2.312-0.016,2.812-0.234c0.5-0.218,0.75-0.64,0.75-1.266l0.562-11.156h-3.375
			c-0.126,2.751-0.328,4.845-0.609,6.281c-0.281,1.438-0.719,2.766-1.312,3.984c-0.595,1.219-1.797,2.797-3.609,4.734
			c-0.625-0.625-1.188-1.031-1.688-1.219c1.187-0.938,2.156-1.922,2.906-2.953s1.28-2.093,1.594-3.188
			c0.312-1.093,0.53-2.233,0.656-3.422c0.125-1.187,0.218-2.593,0.281-4.219h-1.594c-0.688,0-1.5,0.032-2.438,0.094v-1.781
			c0.938,0.063,1.812,0.094,2.625,0.094h1.406v-2.625c0-0.874-0.032-1.749-0.094-2.625
			C123.618,28.727,124.336,28.821,125.025,28.821z"/>
		<path fill="#FFFFFF" d="M134.4,50.29c-0.562-0.375-1.157-0.625-1.781-0.75c0.624-0.876,1.312-2.468,2.062-4.781
			c0.562,0.313,1.187,0.562,1.875,0.75C135.68,47.697,134.962,49.29,134.4,50.29z M140.775,36.79c0,2.563,0.031,4.781,0.094,6.656
			h-6.938c0.062-1.812,0.094-4.031,0.094-6.656s-0.032-5.062-0.094-7.312h6.938C140.805,31.727,140.775,34.165,140.775,36.79z
			 M138.993,35.852v-4.875h-3.188v4.875H138.993z M138.993,41.946v-4.688h-3.188v4.688H138.993z M142.087,49.634
			c-0.625,0-1.219,0.125-1.781,0.375c-0.126-0.688-0.532-2.156-1.219-4.406c0.562-0.124,1.187-0.281,1.875-0.469
			C141.586,47.384,141.961,48.884,142.087,49.634z M147.9,35.571c0.938,0,1.594-0.03,1.969-0.094
			c0.375-0.062,0.593-0.343,0.656-0.844l0.281-4.031h-3.375c-0.25,1.813-0.766,3.281-1.547,4.406
			c-0.782,1.125-1.734,2.095-2.859,2.906c-0.625-0.624-1.157-1.031-1.594-1.219c1.125-0.624,2.062-1.437,2.812-2.438
			c0.75-0.999,1.187-2.218,1.312-3.656c-1.125,0-2.25,0.032-3.375,0.094v-1.594c0.999,0.063,2,0.094,3,0.094h7.688
			c-0.126,0.75-0.234,1.922-0.328,3.516c-0.094,1.594-0.234,2.688-0.422,3.281c-0.188,0.595-0.548,0.954-1.078,1.078
			c-0.532,0.126-1.298,0.251-2.297,0.375C148.68,36.822,148.399,36.197,147.9,35.571z M152.587,40.727
			c0,1.063,0.031,2.095,0.094,3.094h-9.375c0.062-1.062,0.094-2.093,0.094-3.094c0-0.999-0.032-1.937-0.094-2.812h9.375
			C152.618,38.665,152.587,39.602,152.587,40.727z M146.118,49.915c-0.25-1.063-0.688-2.499-1.312-4.312
			c0.375-0.124,0.968-0.312,1.781-0.562c0.687,2.062,1.156,3.53,1.406,4.406C147.368,49.571,146.742,49.727,146.118,49.915z
			 M150.806,42.321v-3.094h-5.625v3.094H150.806z M149.962,45.415c0.375-0.188,0.905-0.437,1.594-0.75
			c1.125,2.126,1.937,3.688,2.438,4.688c-0.625,0.249-1.188,0.53-1.688,0.844C151.868,49.133,151.087,47.541,149.962,45.415z"/>
		<path fill="#FFFFFF" d="M162.337,34.915h7.406c0-3.499-0.032-5.719-0.094-6.656h2.156c-0.063,0.938-0.094,3.157-0.094,6.656
			c2.375,0,4.25-0.03,5.625-0.094v1.688c-1.375-0.062-2.376-0.094-3-0.094h-12c0,1.188-0.032,2.438-0.094,3.75h11.438
			c-0.063,1.438-0.094,3.063-0.094,4.875c0,1.813,0.031,3.5,0.094,5.062h-2.062c0.062-1.5,0.094-4.28,0.094-8.344h-9.656
			c-0.188,1.312-0.595,2.782-1.219,4.406c-0.625,1.626-1.345,2.938-2.156,3.938c-0.313-0.501-0.97-0.876-1.969-1.125
			c1.062-1.249,1.859-2.593,2.391-4.031c0.53-1.437,0.891-2.983,1.078-4.641c0.188-1.655,0.281-3.422,0.281-5.297
			s-0.032-3.968-0.094-6.281c0.624,0.063,1.343,0.126,2.156,0.188C162.399,29.791,162.337,31.791,162.337,34.915z"/>
		<path fill="#FFFFFF" d="M186.993,30.368c-0.25,0.345-0.469,0.735-0.656,1.172h11.531c0.938,0,1.969-0.03,3.094-0.094v1.5h-7.875
			v1.5h3.656c0.75,0,1.625-0.03,2.625-0.094v1.594c-1-0.062-1.875-0.094-2.625-0.094h-3.656v1.5h3.844
			c0.812,0,1.749-0.03,2.812-0.094v1.594c-1.063-0.062-2.001-0.094-2.812-0.094h-3.844v1.312h4.594c0.999,0,2-0.03,3-0.094v1.594
			c-0.938-0.062-1.907-0.094-2.906-0.094h-12.188v0.75h-1.875c0.125-1.125,0.188-2.156,0.188-3.094v-4.312
			c-0.375,0.562-0.703,1.001-0.984,1.312c-0.281,0.313-0.609,0.688-0.984,1.125c-0.438-0.437-0.907-0.812-1.406-1.125
			c0.437-0.499,1.156-1.374,2.156-2.625c0.999-1.249,1.734-2.28,2.203-3.094c0.469-0.812,0.797-1.53,0.984-2.156
			c0.562,0.313,1.25,0.688,2.062,1.125C187.556,29.697,187.242,30.025,186.993,30.368z M190.556,43.352
			c0-0.249-0.032-0.78-0.094-1.594h1.969c-0.063,0.876-0.094,1.406-0.094,1.594h6c1.125,0,2.218-0.03,3.281-0.094v1.5h-6.656
			c0.875,0.75,1.843,1.329,2.906,1.734c1.062,0.407,2.531,0.829,4.406,1.266c-0.562,0.624-0.97,1.25-1.219,1.875
			c-1.251-0.438-2.266-0.829-3.047-1.172c-0.782-0.344-1.5-0.718-2.156-1.125c-0.656-0.405-1.204-0.812-1.641-1.219
			c-0.438-0.405-0.907-0.858-1.406-1.359h-0.469v2.156c0,1.312,0.062,2.438,0.188,3.375h-2.062c0.062-0.876,0.094-2.001,0.094-3.375
			v-2.156h-0.375c-0.438,0.626-0.938,1.188-1.5,1.688c-0.562,0.501-1.172,0.954-1.828,1.359c-0.656,0.406-1.359,0.797-2.109,1.172
			s-1.657,0.718-2.719,1.031c-0.25-0.625-0.625-1.251-1.125-1.875c1.312-0.312,2.656-0.733,4.031-1.266
			c1.374-0.53,2.405-1.233,3.094-2.109h-6.75v-1.5c0.75,0.063,1.875,0.094,3.375,0.094H190.556z M191.212,34.446v-1.5h-5.625v1.5
			H191.212z M191.212,37.352v-1.5h-5.625v1.5H191.212z M191.212,40.071v-1.312h-5.625v1.312H191.212z M193.321,29.102
			c0.343,0.375,0.703,0.813,1.078,1.312c-0.375,0.313-0.907,0.656-1.594,1.031c-0.375-0.499-0.688-0.905-0.938-1.219
			c-0.25-0.312-0.562-0.624-0.938-0.938c0.5-0.312,0.968-0.687,1.406-1.125C192.649,28.416,192.977,28.727,193.321,29.102z"/>
		<path fill="#FFFFFF" d="M213.056,33.79c-1.188-0.062-2.219-0.094-3.094-0.094h-1.875c-0.562,0.876-1.094,1.688-1.594,2.438
			c0.938,0.126,1.843,0.188,2.719,0.188c0.938,0,2.124-0.03,3.562-0.094v1.688c-1.312-0.062-2.25-0.094-2.812-0.094v3.094
			c0.75,0,1.594-0.03,2.531-0.094v1.594c-0.938-0.062-1.781-0.094-2.531-0.094v3.938c0.938-0.938,1.562-1.594,1.875-1.969
			c0.312,0.438,0.75,0.876,1.312,1.312c-0.688,0.501-1.422,1.095-2.203,1.781c-0.782,0.688-1.453,1.344-2.016,1.969
			c-0.438-0.501-0.907-1-1.406-1.5c0.375-0.312,0.624-0.718,0.75-1.219v-4.312c-0.876,0-1.813,0.032-2.812,0.094v-1.594
			c0.999,0.063,1.937,0.094,2.812,0.094v-3.094c-0.501,0-1.094,0.063-1.781,0.188v-1.781c-0.313,0.375-0.625,0.782-0.938,1.219
			c-0.438-0.499-0.907-0.905-1.406-1.219c1.312-1.688,2.312-3.202,3-4.547c0.687-1.343,1.156-2.421,1.406-3.234
			c0.75,0.438,1.406,0.75,1.969,0.938c-0.501,0.626-1.063,1.563-1.688,2.812c1.749,0,3.155-0.03,4.219-0.094V33.79z M219.056,30.884
			h5.531c-0.063,1.125-0.094,2.156-0.094,3.094v1.969c0,0.876,0.031,1.781,0.094,2.719h-4.406v1.969h5.156
			c-0.063,1.063-0.094,2.062-0.094,3v2.719c-0.126,0.813-0.438,1.345-0.938,1.594c-0.501,0.249-1.219,0.437-2.156,0.562
			c-0.188-0.687-0.407-1.343-0.656-1.969c0.875,0,1.437-0.062,1.688-0.188c0.249-0.124,0.406-0.405,0.469-0.844V42.04h-3.469v5.25
			c0,0.812,0.031,1.781,0.094,2.906h-1.781c0.062-1.125,0.094-2.095,0.094-2.906v-5.25h-2.906v6.375h-1.688
			c0.062-1.125,0.094-2.062,0.094-2.812v-1.875c0-0.938-0.032-1.969-0.094-3.094h4.594v-1.969h-4.125
			c0.062-0.938,0.094-1.843,0.094-2.719v-1.969c0-0.938-0.032-1.969-0.094-3.094h2.906c0.125-0.562,0.249-1.468,0.375-2.719
			c0.687,0.188,1.406,0.375,2.156,0.562C219.586,29.102,219.305,29.822,219.056,30.884z M222.9,33.977V32.29h-6.75v1.688H222.9z
			 M222.9,37.259v-1.875h-6.75v1.875H222.9z"/>
	</g>
</g>
</svg>
