<?xml version="1.0" encoding="utf-8"?>
<!-- Generator: Adobe Illustrator 17.0.0, SVG Export Plug-In . SVG Version: 6.00 Build 0)  -->
<!DOCTYPE svg PUBLIC "-//W3C//DTD SVG 1.1//EN" "http://www.w3.org/Graphics/SVG/1.1/DTD/svg11.dtd">
<svg version="1.1" id="图层_1" xmlns="http://www.w3.org/2000/svg" xmlns:xlink="http://www.w3.org/1999/xlink" x="0px" y="0px"
	 width="336.905px" height="78.455px" viewBox="0 0 336.905 78.455" enable-background="new 0 0 336.905 78.455"
	 xml:space="preserve">
<g>
	<path fill="#FFFFFF" d="M45.869,32.662c-0.126,0.813-0.281,1.641-0.469,2.484s-0.375,1.673-0.562,2.484
		c-0.188,0.813-0.407,1.563-0.656,2.25l-0.469,1.5c0.375,0.501,0.812,1.172,1.312,2.016c0.5,0.844,0.999,1.704,1.5,2.578
		c-0.562,0.313-1.094,0.656-1.594,1.031c-0.375-0.687-0.719-1.296-1.031-1.828c-0.313-0.53-0.688-1.203-1.125-2.016
		c-0.438,1.063-0.97,2.142-1.594,3.234c-0.625,1.094-1.312,2.172-2.062,3.234c-0.625-0.501-1.219-0.905-1.781-1.219
		c0.875-0.938,1.608-1.875,2.203-2.812c0.594-0.938,1.266-2.218,2.016-3.844c-0.438-0.75-0.891-1.437-1.359-2.062
		c-0.469-0.624-1.078-1.374-1.828-2.25c0.437-0.375,0.938-0.75,1.5-1.125c0.312,0.438,0.703,0.954,1.172,1.547
		c0.469,0.595,0.952,1.266,1.453,2.016c0.249-0.812,0.5-1.655,0.75-2.531c0.249-0.875,0.469-1.937,0.656-3.188h-2.906
		c-1.063,0-2.125,0.032-3.188,0.094v-1.688c1.125,0.063,2.156,0.094,3.094,0.094H45.869z M52.525,40.724
		c0,0.813,0.249,1.75,0.75,2.812c0.5,1.063,1.093,1.969,1.781,2.719c0.688,0.75,1.406,1.345,2.156,1.781
		c0.75,0.438,1.406,0.719,1.969,0.844c-0.501,0.562-0.938,1.219-1.312,1.969c-2.438-1.563-4-2.906-4.688-4.031
		c-0.688-1.125-1.188-2.156-1.5-3.094c-0.625,1.688-1.375,3.079-2.25,4.172c-0.876,1.093-2.125,2.203-3.75,3.328
		c-0.501-0.562-1.063-1.094-1.688-1.594c1.374-0.562,2.484-1.266,3.328-2.109s1.5-1.718,1.969-2.625
		c0.469-0.905,0.781-1.796,0.938-2.672c0.155-0.875,0.249-1.608,0.281-2.203c0.031-0.593,0.047-1.453,0.047-2.578
		c0.624,0.063,1.374,0.157,2.25,0.281C52.619,38.912,52.525,39.913,52.525,40.724z M50.322,31.818
		c-0.156,0.625-0.328,1.251-0.516,1.875h8.344c-0.188,0.501-0.422,1.11-0.703,1.828c-0.281,0.719-0.578,1.734-0.891,3.047
		c-0.688-0.188-1.312-0.312-1.875-0.375c0.188-0.624,0.359-1.14,0.516-1.547c0.155-0.406,0.296-0.891,0.422-1.453h-6.281
		c-0.25,0.75-0.501,1.453-0.75,2.109c-0.25,0.656-0.531,1.422-0.844,2.297c-0.688-0.312-1.281-0.53-1.781-0.656
		c0.375-0.687,0.718-1.406,1.031-2.156c0.312-0.75,0.562-1.531,0.75-2.344c0.188-0.812,0.375-1.655,0.562-2.531
		c0.188-0.875,0.343-1.688,0.469-2.438c0.688,0.188,1.468,0.375,2.344,0.562C50.744,30.599,50.477,31.194,50.322,31.818z"/>
	<path fill="#FFFFFF" d="M75.775,50.99c-1.813-0.094-3.328-0.22-4.547-0.375c-1.219-0.157-2.329-0.422-3.328-0.797
		c-1-0.375-1.781-0.735-2.344-1.078s-1.11-0.188-1.641,0.469c-0.531,0.656-1.078,1.359-1.641,2.109
		c-0.438-0.438-0.938-0.876-1.5-1.312c1.312-1.25,2.281-2.124,2.906-2.625v-8.438c-0.75,0-1.626,0.032-2.625,0.094v-1.781
		c1.062,0.063,1.969,0.094,2.719,0.094h1.875c-0.062,1.5-0.094,2.906-0.094,4.219v5.438c1.812,1.251,4.641,1.938,8.484,2.062
		s6.858,0.062,9.047-0.188c-0.501,0.875-0.812,1.625-0.938,2.25C79.712,51.13,77.587,51.083,75.775,50.99z M61.994,30.318
		c0.562-0.249,1.187-0.469,1.875-0.656c0.812,2.25,1.312,3.782,1.5,4.594c-0.625,0.126-1.251,0.313-1.875,0.562
		C63.306,34.006,62.805,32.506,61.994,30.318z M68.369,45.88l-0.938-1.594c0.5-0.437,0.718-1.125,0.656-2.062v-7.875
		c0-1.062-0.032-2.156-0.094-3.281c2.062-0.312,3.594-0.875,4.594-1.688c0.312,0.75,0.75,1.375,1.312,1.875
		c-0.75,0.126-2.095,0.438-4.031,0.938v11.062c0.437-0.188,1.468-0.75,3.094-1.688c0,0.562,0.062,1.219,0.188,1.969
		C72.461,43.724,70.868,44.506,68.369,45.88z M79.244,42.787c0.249-0.249,0.375-0.656,0.375-1.219v-9.094h-3.375v11.812
		c0,1,0.062,2.156,0.188,3.469h-2.062c0.062-1.312,0.094-2.499,0.094-3.562v-9.375c0-1.25-0.032-2.562-0.094-3.938h7.125
		c-0.062,1.312-0.094,2.594-0.094,3.844v7.5c0,1.188-0.281,1.922-0.844,2.203s-1.312,0.485-2.25,0.609
		c-0.188-0.687-0.438-1.312-0.75-1.875C78.431,43.162,78.994,43.037,79.244,42.787z"/>
	<path fill="#FFFFFF" d="M96.869,29.755c-0.062,0.625-0.094,1.282-0.094,1.969v1.125h5.625c0.75,0,1.562-0.031,2.438-0.094v1.875
		c-0.876-0.125-1.688-0.188-2.438-0.188h-5.625v5.438h6.469c0.938,0,1.969-0.031,3.094-0.094v1.781
		c-1.063-0.062-2.095-0.094-3.094-0.094h-4.875c0.437,0.625,0.969,1.219,1.594,1.781c0.624,0.562,1.297,1.11,2.016,1.641
		c0.718,0.532,1.515,0.984,2.391,1.359c0.875,0.375,1.719,0.656,2.531,0.844c-0.625,0.562-1.031,1-1.219,1.312
		c-0.188,0.313-0.313,0.593-0.375,0.844c-1.312-0.562-2.391-1.14-3.234-1.734c-0.844-0.593-1.626-1.233-2.344-1.922
		c-0.719-0.687-1.328-1.343-1.828-1.969c-0.501-0.624-0.876-1.219-1.125-1.781v5.344c0,1,0.031,2.187,0.094,3.562h-2.156
		c0.125-1.375,0.188-2.562,0.188-3.562v-5.531c-1.312,2.062-2.688,3.735-4.125,5.016c-1.438,1.282-2.751,2.266-3.938,2.953
		c-0.375-0.562-0.938-1.125-1.688-1.688c2.25-0.999,4.062-2.203,5.438-3.609c1.374-1.406,2.188-2.358,2.438-2.859H88.15
		c-0.75,0-1.626,0.063-2.625,0.188v-1.875c0.999,0.063,1.875,0.094,2.625,0.094h6.75v-5.438h-5.344
		c-1.063,0-1.969,0.063-2.719,0.188v-1.875c0.75,0.063,1.625,0.094,2.625,0.094H94.9V31.63c-0.126-0.687-0.188-1.312-0.188-1.875
		H96.869z M92.931,38.662c-0.562,0.25-1.094,0.532-1.594,0.844c-0.562-1.125-1.281-2.25-2.156-3.375
		c0.437-0.312,0.875-0.656,1.312-1.031C91.493,36.224,92.306,37.412,92.931,38.662z M100.244,39.599
		c-0.562-0.249-1.094-0.469-1.594-0.656c0.999-1.812,1.749-3.125,2.25-3.938c0.562,0.188,1.093,0.469,1.594,0.844
		C101.869,36.913,101.119,38.162,100.244,39.599z"/>
	<path fill="#FFFFFF" d="M113.697,49.63c-1.844,0.312-3.141,0.593-3.891,0.844c-0.188-0.813-0.407-1.594-0.656-2.344
		c1.125-0.062,2.047-0.125,2.766-0.188c0.718-0.062,1.578-0.155,2.578-0.281v-3.656h-1.312c-1.251,0-2.312,0.063-3.188,0.188v-1.781
		c1.062,0.063,2.03,0.094,2.906,0.094h1.594v-3.094c-1.251,0.063-2.142,0.126-2.672,0.188c-0.531,0.063-1.11,0.157-1.734,0.281
		c-0.126-0.812-0.313-1.531-0.562-2.156c0.999-0.249,1.89-0.875,2.672-1.875c0.781-0.999,1.391-2.124,1.828-3.375h-1.406
		c-1.063,0-2.062,0.032-3,0.094v-1.781c0.999,0.063,1.969,0.094,2.906,0.094h6c1.125,0,2.124-0.031,3-0.094v1.781
		c-0.938-0.062-1.938-0.094-3-0.094h-3.844l1.688,1.125c-0.625,0.501-1.219,1.125-1.781,1.875s-1.219,1.563-1.969,2.438
		c2.25-0.125,4.344-0.249,6.281-0.375c-0.501-0.812-1.063-1.625-1.688-2.438c0.624-0.312,1.187-0.656,1.688-1.031
		c0.624,0.876,1.219,1.72,1.781,2.531c0.562,0.813,1.093,1.563,1.594,2.25c-0.562,0.438-1.188,0.844-1.875,1.219
		c-0.25-0.437-0.469-0.812-0.656-1.125c-1.312,0.188-2.406,0.313-3.281,0.375v3.188h1.781c1.062,0,1.969-0.031,2.719-0.094v1.781
		c-0.812-0.125-1.688-0.188-2.625-0.188h-1.875v3.469c1.749-0.249,3.594-0.53,5.531-0.844c-0.126,0.625-0.22,1.219-0.281,1.781
		C118.211,48.913,115.539,49.317,113.697,49.63z M124.994,35.943v7.031c0,1.312,0.031,2.407,0.094,3.281h-1.969
		c0.062-0.875,0.094-1.969,0.094-3.281v-7.406c0-1.25-0.032-2.25-0.094-3h2.062C125.055,33.381,124.994,34.506,124.994,35.943z
		 M129.775,32.755V48.13c0,1.437-0.267,2.281-0.797,2.531c-0.531,0.249-1.673,0.53-3.422,0.844c-0.188-0.813-0.469-1.563-0.844-2.25
		c1.312,0,2.171-0.047,2.578-0.141c0.406-0.094,0.609-0.609,0.609-1.547V32.755c0-1.374-0.032-2.438-0.094-3.188h2.156
		C129.836,30.505,129.775,31.569,129.775,32.755z"/>
</g>
<g>
	<path fill="#FFFFFF" d="M141.237,31.957h7.704c1.522,0,2.752,0.432,3.688,1.295c0.937,0.863,1.405,2.076,1.405,3.639
		c0,1.344-0.418,2.514-1.253,3.51s-2.114,1.494-3.836,1.494h-5.375v7.277h-2.332V31.957z M150.282,34.324
		c-0.512-0.242-1.214-0.363-2.106-0.363h-4.607v5.965h4.607c1.039,0,1.883-0.223,2.53-0.668c0.648-0.445,0.972-1.23,0.972-2.355
		C151.678,35.637,151.213,34.777,150.282,34.324z"/>
	<path fill="#FFFFFF" d="M165.834,37.874c1.109,1.078,1.664,2.662,1.664,4.753c0,2.022-0.489,3.692-1.466,5.012
		c-0.978,1.319-2.494,1.979-4.55,1.979c-1.714,0-3.076-0.583-4.084-1.75c-1.009-1.167-1.513-2.734-1.513-4.701
		c0-2.108,0.531-3.786,1.594-5.035c1.062-1.249,2.49-1.874,4.282-1.874C163.368,36.258,164.725,36.796,165.834,37.874z
		 M164.525,46.215c0.514-1.057,0.771-2.233,0.771-3.529c0-1.17-0.186-2.123-0.556-2.856c-0.587-1.155-1.599-1.732-3.036-1.732
		c-1.275,0-2.202,0.492-2.781,1.475c-0.58,0.983-0.869,2.169-0.869,3.558c0,1.334,0.29,2.446,0.869,3.335
		c0.579,0.89,1.499,1.334,2.758,1.334C163.063,47.801,164.011,47.272,164.525,46.215z"/>
	<path fill="#FFFFFF" d="M170.147,36.621h2.004v2.168c0.164-0.422,0.566-0.936,1.207-1.541s1.379-0.908,2.215-0.908
		c0.039,0,0.105,0.004,0.199,0.012s0.254,0.023,0.48,0.047v2.227c-0.125-0.023-0.24-0.039-0.346-0.047s-0.221-0.012-0.346-0.012
		c-1.062,0-1.879,0.342-2.449,1.025s-0.855,1.471-0.855,2.361v7.219h-2.109V36.621z"/>
	<path fill="#FFFFFF" d="M178.502,33.117h2.133v3.504h2.004v1.723h-2.004v8.191c0,0.438,0.148,0.73,0.445,0.879
		c0.164,0.086,0.438,0.129,0.82,0.129c0.102,0,0.211-0.002,0.328-0.008c0.117-0.005,0.254-0.018,0.41-0.039v1.676
		c-0.242,0.07-0.494,0.121-0.756,0.152s-0.545,0.047-0.85,0.047c-0.984,0-1.652-0.252-2.004-0.756s-0.527-1.158-0.527-1.963v-8.309
		h-1.699v-1.723h1.699V33.117z"/>
	<path fill="#FFFFFF" d="M185.733,32.789c0.492-0.719,1.441-1.078,2.848-1.078c0.133,0,0.27,0.004,0.41,0.012s0.301,0.02,0.48,0.035
		v1.922c-0.221-0.016-0.381-0.025-0.48-0.029s-0.192-0.006-0.278-0.006c-0.648,0-1.035,0.166-1.162,0.498s-0.189,1.178-0.189,2.537
		h2.109v1.664h-2.109v10.828h-2.086V38.344h-1.746V36.68h1.746v-1.969C185.307,33.836,185.459,33.195,185.733,32.789z"/>
	<path fill="#FFFFFF" d="M200.51,37.874c1.109,1.078,1.664,2.662,1.664,4.753c0,2.022-0.489,3.692-1.466,5.012
		c-0.978,1.319-2.494,1.979-4.55,1.979c-1.714,0-3.076-0.583-4.084-1.75c-1.009-1.167-1.513-2.734-1.513-4.701
		c0-2.108,0.531-3.786,1.594-5.035c1.062-1.249,2.49-1.874,4.282-1.874C198.043,36.258,199.401,36.796,200.51,37.874z
		 M199.201,46.215c0.514-1.057,0.771-2.233,0.771-3.529c0-1.17-0.186-2.123-0.556-2.856c-0.587-1.155-1.599-1.732-3.036-1.732
		c-1.275,0-2.202,0.492-2.781,1.475c-0.58,0.983-0.869,2.169-0.869,3.558c0,1.334,0.29,2.446,0.869,3.335
		c0.579,0.89,1.499,1.334,2.758,1.334C197.739,47.801,198.686,47.272,199.201,46.215z"/>
	<path fill="#FFFFFF" d="M204.823,31.957h2.109v17.215h-2.109V31.957z"/>
	<path fill="#FFFFFF" d="M210.096,31.957h2.145v2.391h-2.145V31.957z M210.096,36.68h2.145v12.492h-2.145V36.68z"/>
	<path fill="#FFFFFF" d="M224.522,37.874c1.109,1.078,1.664,2.662,1.664,4.753c0,2.022-0.489,3.692-1.466,5.012
		c-0.978,1.319-2.494,1.979-4.55,1.979c-1.714,0-3.076-0.583-4.084-1.75c-1.009-1.167-1.513-2.734-1.513-4.701
		c0-2.108,0.531-3.786,1.594-5.035c1.062-1.249,2.49-1.874,4.282-1.874C222.055,36.258,223.413,36.796,224.522,37.874z
		 M223.212,46.215c0.514-1.057,0.771-2.233,0.771-3.529c0-1.17-0.186-2.123-0.556-2.856c-0.587-1.155-1.599-1.732-3.036-1.732
		c-1.275,0-2.202,0.492-2.781,1.475c-0.58,0.983-0.869,2.169-0.869,3.558c0,1.334,0.29,2.446,0.869,3.335
		c0.579,0.89,1.499,1.334,2.758,1.334C221.75,47.801,222.698,47.272,223.212,46.215z"/>
	<path fill="#FFFFFF" d="M235.725,31.957h2.747l8.585,13.909V31.957h2.227v17.215h-2.62l-8.712-13.893v13.893h-2.227V31.957z"/>
	<path fill="#FFFFFF" d="M252.776,31.957h2.145v2.391h-2.145V31.957z M252.776,36.68h2.145v12.492h-2.145V36.68z"/>
	<path fill="#FFFFFF" d="M265.085,37.125c0.396,0.273,0.801,0.672,1.214,1.195v-1.582h1.945v11.414c0,1.594-0.233,2.852-0.701,3.773
		c-0.872,1.703-2.519,2.555-4.94,2.555c-1.347,0-2.48-0.303-3.399-0.908s-1.433-1.553-1.542-2.842h2.145
		c0.101,0.562,0.303,0.996,0.606,1.301c0.474,0.469,1.22,0.703,2.238,0.703c1.608,0,2.661-0.57,3.158-1.711
		c0.295-0.672,0.432-1.871,0.408-3.598c-0.42,0.641-0.926,1.117-1.518,1.43c-0.591,0.312-1.374,0.469-2.346,0.469
		c-1.354,0-2.539-0.482-3.554-1.447c-1.016-0.965-1.523-2.561-1.523-4.787c0-2.102,0.512-3.742,1.535-4.922s2.259-1.77,3.706-1.77
		C263.497,36.398,264.353,36.641,265.085,37.125z M265.343,39.387c-0.637-0.75-1.45-1.125-2.437-1.125
		c-1.477,0-2.487,0.695-3.031,2.086c-0.288,0.742-0.432,1.715-0.432,2.918c0,1.414,0.286,2.49,0.857,3.229s1.339,1.107,2.303,1.107
		c1.508,0,2.569-0.684,3.183-2.051c0.342-0.773,0.513-1.676,0.513-2.707C266.299,41.289,265.98,40.137,265.343,39.387z"/>
	<path fill="#FFFFFF" d="M271.455,31.898h2.109v6.422c0.5-0.633,0.949-1.078,1.348-1.336c0.68-0.445,1.527-0.668,2.543-0.668
		c1.82,0,3.055,0.637,3.703,1.91c0.352,0.695,0.527,1.66,0.527,2.895v8.051h-2.168v-7.91c0-0.922-0.117-1.598-0.352-2.027
		c-0.383-0.688-1.102-1.031-2.156-1.031c-0.875,0-1.668,0.301-2.379,0.902s-1.066,1.738-1.066,3.41v6.656h-2.109V31.898z"/>
	<path fill="#FFFFFF" d="M285.225,33.117h2.133v3.504h2.004v1.723h-2.004v8.191c0,0.438,0.148,0.73,0.445,0.879
		c0.164,0.086,0.438,0.129,0.82,0.129c0.102,0,0.211-0.002,0.328-0.008c0.117-0.005,0.254-0.018,0.41-0.039v1.676
		c-0.242,0.07-0.494,0.121-0.756,0.152s-0.545,0.047-0.85,0.047c-0.984,0-1.652-0.252-2.004-0.756s-0.527-1.158-0.527-1.963v-8.309
		h-1.699v-1.723h1.699V33.117z"/>
</g>
</svg>
