<?xml version="1.0" encoding="utf-8"?>
<!-- Generator: Adobe Illustrator 17.0.0, SVG Export Plug-In . SVG Version: 6.00 Build 0)  -->
<!DOCTYPE svg PUBLIC "-//W3C//DTD SVG 1.1//EN" "http://www.w3.org/Graphics/SVG/1.1/DTD/svg11.dtd">
<svg version="1.1" id="图层_1" xmlns="http://www.w3.org/2000/svg" xmlns:xlink="http://www.w3.org/1999/xlink" x="0px" y="0px"
	 width="336.639px" height="78.455px" viewBox="0 0 336.639 78.455" enable-background="new 0 0 336.639 78.455"
	 xml:space="preserve">
<g>
	<g>
		<path fill="#FFFFFF" d="M47.306,31.259c-0.562,0.188-1.75,0.469-3.562,0.844v3.562h4.875c0-1.688-0.032-4.031-0.094-7.031
			c0.687,0.126,1.374,0.188,2.062,0.188c-0.126,0.938-0.188,2.001-0.188,3.187v3.656h4.219c0.938,0,2.03-0.03,3.281-0.094v1.688
			c-1.251-0.062-2.313-0.094-3.188-0.094h-4.219c0.188,3,0.593,5.156,1.219,6.469c1.312-1.249,2.438-3.094,3.375-5.531
			c0.5,0.438,1.156,0.844,1.969,1.219c-0.501,0.562-1.157,1.485-1.969,2.766c-0.813,1.282-1.657,2.36-2.531,3.234
			c0.5,0.75,1.031,1.376,1.594,1.875c0.562,0.501,1.015,0.797,1.359,0.891c0.343,0.094,0.593-0.094,0.75-0.562
			c0.155-0.469,0.265-1.14,0.328-2.016c0.624,0.438,1.28,0.813,1.969,1.125c-0.501,1.749-1.031,2.844-1.594,3.281
			c-0.562,0.437-1.375,0.375-2.438-0.188c-1.063-0.562-2.156-1.626-3.281-3.188c-2.125,1.5-3.813,2.562-5.062,3.188
			c-0.375-0.688-0.844-1.251-1.406-1.688c1.875-0.624,3.718-1.655,5.531-3.094c-0.876-1.749-1.406-4.343-1.594-7.781h-4.969v3.656
			c1.437-0.312,2.531-0.624,3.281-0.938c0.062,0.626,0.125,1.219,0.188,1.781c-0.813,0.188-1.969,0.469-3.469,0.844v4.781
			c0.062,1.187-0.313,1.953-1.125,2.297c-0.813,0.343-1.75,0.609-2.812,0.797c-0.063-0.688-0.375-1.406-0.938-2.156
			c1.25,0,2.077-0.079,2.484-0.234c0.406-0.155,0.609-0.516,0.609-1.078v-3.938c-2.376,0.626-3.938,1.063-4.688,1.312
			c-0.063-0.874-0.25-1.594-0.562-2.156c1.125-0.124,2.874-0.437,5.25-0.938v-4.031c-2.438,0-4.125,0.032-5.062,0.094v-1.688
			c0.999,0.063,2.687,0.094,5.062,0.094v-3.094l-3.938,0.844c-0.188-0.687-0.438-1.28-0.75-1.781c0.938,0,2.391-0.218,4.359-0.656
			c1.969-0.437,3.453-0.938,4.453-1.5C46.711,30.353,47.118,30.947,47.306,31.259z M56.493,33.134c-0.501,0.375-1,0.813-1.5,1.312
			c-1-1.374-2.062-2.499-3.188-3.375c0.5-0.437,0.905-0.874,1.219-1.312C54.649,31.259,55.805,32.384,56.493,33.134z"/>
		<path fill="#FFFFFF" d="M77.025,28.915c0.938,0,2-0.03,3.188-0.094v1.594c-1.188-0.062-2.25-0.094-3.188-0.094h-4.594v1.594h9.375
			v4.406h-1.781v-3h-7.594v2.625c0,1.063,0.031,2.032,0.094,2.906h-1.969c0.062-0.812,0.094-1.749,0.094-2.812v-2.719h-7.688v3
			h-1.875c0-0.687,0.015-1.374,0.047-2.062c0.031-0.687,0.015-1.468-0.047-2.344h9.563v-1.594h-4.594
			c-0.938,0-1.875,0.032-2.813,0.094v-1.594c0.938,0.063,1.843,0.094,2.719,0.094H77.025z M78.712,40.071
			c0.875,0,1.906-0.03,3.094-0.094v1.594c-1.188-0.062-2.219-0.094-3.094-0.094h-6.469c-0.313,0.562-0.532,1.125-0.656,1.688H80.4
			c-0.063,0.813-0.094,1.532-0.094,2.156v2.812c0,0.75-0.188,1.233-0.562,1.453c-0.375,0.219-1.188,0.453-2.438,0.703
			c-0.063-0.562-0.344-1.219-0.844-1.969c0.999,0,1.594-0.062,1.781-0.188c0.188-0.126,0.281-0.437,0.281-0.938v-2.625h-3.656v4.781
			h-1.781v-4.781h-3.281v4.781h-1.781v-4.781h-3.562v5.531h-1.781c0.062-0.876,0.094-1.813,0.094-2.812v-1.5
			c0-0.812-0.032-1.688-0.094-2.625H69.9c0.188-0.562,0.343-1.125,0.469-1.688h-5.906c-1.063,0-2.095,0.032-3.094,0.094v-1.594
			c0.938,0.063,1.937,0.094,3,0.094H78.712z M68.681,38.759h-4.594v-1.312h4.594V38.759z M68.775,36.134h-4.406v-1.312h4.406V36.134
			z M78.15,36.04h-4.406v-1.312h4.406V36.04z M78.243,38.571h-4.406v-1.312h4.406V38.571z"/>
		<path fill="#FFFFFF" d="M102.525,29.196c0.938,0,2-0.03,3.188-0.094v1.594c-1.188-0.062-2.25-0.094-3.188-0.094h-3.75v2.437h5.25
			c-0.063,1.063-0.094,2.062-0.094,3s0.031,1.907,0.094,2.906h-9.938c0.687,0.438,1.219,0.782,1.594,1.031
			c-0.562,0.375-0.97,0.72-1.219,1.031h8.812c0.999,0,2.062-0.062,3.188-0.188v1.781c-1.125-0.062-2.219-0.094-3.281-0.094h-2.719
			c-0.625,1.063-1.469,2.22-2.531,3.469c2.812,0.75,5.468,1.563,7.969,2.438c-0.625,0.437-1.125,0.969-1.5,1.594
			c-2.376-1.063-5.001-2.001-7.875-2.812c-0.876,0.626-1.985,1.187-3.328,1.688c-1.345,0.5-2.625,0.844-3.844,1.031
			s-2.329,0.343-3.328,0.469c-0.188-0.812-0.595-1.469-1.219-1.969c1.187,0.062,2.438,0.031,3.75-0.094
			c1.312-0.126,2.499-0.36,3.562-0.703c1.062-0.343,1.906-0.703,2.531-1.078c-2.062-0.499-4.094-0.938-6.094-1.312
			c0.938-0.938,1.812-1.843,2.625-2.719h-3.938c-1.063,0-2.095,0.032-3.094,0.094v-1.688c1.25,0.063,2.281,0.094,3.094,0.094h4.969
			c0.624-0.75,1.125-1.437,1.5-2.062h-6.938c0.062-0.999,0.094-1.969,0.094-2.906s-0.032-1.937-0.094-3h5.156v-2.437h-3.656
			c-1.063,0-2.188,0.032-3.375,0.094v-1.594c1.187,0.063,2.281,0.094,3.281,0.094H102.525z M91.931,37.54v-3H88.65v3H91.931z
			 M96.15,45.415c0.75-0.75,1.531-1.718,2.344-2.906h-5.062c-0.562,0.562-1.125,1.157-1.688,1.781
			C92.742,44.477,94.212,44.852,96.15,45.415z M97.087,33.04v-2.437h-3.375v2.437H97.087z M97.087,37.54v-3h-3.375v3H97.087z
			 M102.15,37.54v-3h-3.375v3H102.15z"/>
		<path fill="#FFFFFF" d="M111.9,44.759c-0.562,1.438-1.094,2.657-1.594,3.656c-0.562-0.438-1.188-0.844-1.875-1.219
			c0.687-1.125,1.312-2.265,1.875-3.422c0.562-1.155,1.125-2.64,1.688-4.453c0.437,0.438,0.999,0.75,1.688,0.938
			C113.055,41.822,112.462,43.322,111.9,44.759z M111.759,31.774c0.781,0.782,1.515,1.547,2.203,2.297
			c-0.562,0.562-1.031,1.063-1.406,1.5c-0.688-0.999-1.969-2.438-3.844-4.312c0.5-0.375,0.968-0.78,1.406-1.219
			C110.43,30.415,110.977,30.994,111.759,31.774z M115.931,33.743c0.938-1.843,1.594-3.577,1.969-5.203
			c0.687,0.313,1.437,0.595,2.25,0.844c-0.375,0.438-0.876,1.5-1.5,3.187h6.844c1.437,0,2.75-0.03,3.938-0.094v1.688
			c-1.251-0.062-2.563-0.094-3.938-0.094h-1.125v3.188c1.812,0,3.281-0.03,4.406-0.094v1.688c-1.125-0.062-2.594-0.094-4.406-0.094
			v3.188c1.875,0,3.343-0.03,4.406-0.094v1.594c-1.063-0.062-2.531-0.094-4.406-0.094v3.188c2.625,0,4.531-0.03,5.719-0.094v1.875
			c-1.188-0.062-2.531-0.094-4.031-0.094h-7.594v1.969h-1.969c0.062-1.125,0.094-2.719,0.094-4.781v-8.906
			c-0.375,0.688-0.844,1.5-1.406,2.438c-0.501-0.624-1.094-1.093-1.781-1.406C114.15,36.853,114.993,35.588,115.931,33.743z
			 M122.493,37.259v-3.188h-4.031v3.188H122.493z M122.493,41.946v-3.188h-4.031v3.188H122.493z M122.493,46.54v-3.188h-4.031v3.188
			H122.493z M125.4,31.071c-0.438,0.251-0.938,0.626-1.5,1.125c-0.438-0.75-1.219-1.655-2.344-2.719
			c0.375-0.188,0.844-0.562,1.406-1.125C124.087,29.416,124.899,30.321,125.4,31.071z"/>
		<path fill="#FFFFFF" d="M132.337,39.134c1.562-0.124,3.265-0.375,5.109-0.75c1.843-0.375,3.328-0.874,4.453-1.5
			c-1.438-1.187-2.625-2.25-3.562-3.188c-0.75,0.75-1.626,1.563-2.625,2.438c-0.562-0.499-1.063-0.844-1.5-1.031
			c2.438-1.875,4.343-4.219,5.719-7.031c0.624,0.375,1.28,0.688,1.969,0.938l-0.75,0.75c-0.188,0.188-0.501,0.562-0.938,1.125
			h10.406c-0.562,1.063-1.298,2.109-2.203,3.141c-0.907,1.031-1.985,2.016-3.234,2.953c0.999,0.501,2.452,0.907,4.359,1.219
			c1.906,0.313,3.577,0.407,5.016,0.281c-0.375,0.626-0.656,1.282-0.844,1.969c-2.25-0.249-4.125-0.516-5.625-0.797
			s-3.032-0.827-4.594-1.641c-1.75,0.813-3.579,1.438-5.484,1.875c-1.907,0.438-3.454,0.782-4.641,1.031
			C133.242,40.352,132.9,39.76,132.337,39.134z M150.431,45.321c0,2.126,0.031,3.781,0.094,4.969h-1.781v-1.219H138.15v1.219h-1.781
			c0.062-1.188,0.094-2.843,0.094-4.969c0-2.187-0.032-3.844-0.094-4.969h14.156C150.462,41.477,150.431,43.135,150.431,45.321z
			 M142.556,44.009v-2.25h-4.406v2.25H142.556z M142.556,47.571v-2.156h-4.406v2.156H142.556z M143.681,36.04
			c1.312-0.812,2.687-2.093,4.125-3.844h-8.25l-0.281,0.281C140.587,33.728,142.055,34.915,143.681,36.04z M148.743,44.009v-2.25
			h-4.5v2.25H148.743z M148.743,47.571v-2.156h-4.5v2.156H148.743z"/>
		<path fill="#FFFFFF" d="M163.556,31.352c-0.375,0.688-0.75,1.438-1.125,2.25v12.844c0,1.625,0.031,2.906,0.094,3.844h-2.156
			c0.062-1.063,0.094-2.282,0.094-3.656v-9.562c-0.75,1.312-1.563,2.563-2.438,3.75c-0.375-0.437-0.844-0.905-1.406-1.406
			c1.125-1.125,2.312-2.906,3.562-5.344c1.25-2.437,2.03-4.312,2.344-5.625c0.687,0.438,1.406,0.782,2.156,1.031
			C164.306,30.04,163.931,30.666,163.556,31.352z M169.556,36.134v-4.687c0-0.874-0.032-1.812-0.094-2.812h2.156
			c-0.126,1.001-0.188,1.938-0.188,2.812v4.687h3.844c0.812,0,1.781-0.03,2.906-0.094v1.875c-1.063-0.062-2.001-0.094-2.812-0.094
			h-3.938v9.188c0,0.999,0.031,2.03,0.094,3.094h-2.062c0.062-1,0.094-2.001,0.094-3v-9.281h-3.281c-1,0-1.969,0.032-2.906,0.094
			V36.04c0.938,0.063,1.875,0.094,2.812,0.094H169.556z"/>
		<path fill="#FFFFFF" d="M190.696,32.43c-0.844,1.345-1.922,2.766-3.234,4.266s-3.094,3.188-5.344,5.062
			c-0.438-0.687-0.938-1.249-1.5-1.688c1.562-0.874,3.312-2.452,5.25-4.734c1.937-2.28,3.375-4.483,4.312-6.609
			c0.812,0.562,1.5,0.97,2.062,1.219C192.056,30.26,191.54,31.088,190.696,32.43z M193.978,37.634c-1.031,1.438-2.329,3-3.891,4.688
			c-1.563,1.688-2.938,3.063-4.125,4.125c1.374-0.062,3.171-0.155,5.391-0.281c2.218-0.124,4.359-0.249,6.422-0.375
			c-1-1.749-1.844-3.094-2.531-4.031c0.624-0.375,1.156-0.78,1.594-1.219c0.999,1.376,1.969,2.766,2.906,4.172
			s1.749,2.735,2.438,3.984c-0.438,0.125-1.094,0.53-1.969,1.219c-0.375-0.75-0.844-1.562-1.406-2.438
			c-3.063,0.126-6.328,0.345-9.797,0.656c-3.469,0.312-5.391,0.594-5.766,0.844c-0.25-0.75-0.532-1.53-0.844-2.344
			c0.938-0.062,2.578-1.312,4.922-3.75s4.578-5.593,6.703-9.469c0.624,0.562,1.343,1.063,2.156,1.5
			C195.743,35.29,195.009,36.197,193.978,37.634z"/>
		<path fill="#FFFFFF" d="M210.9,30.696c1.625-0.188,2.937,0.656,3.938,2.531c0.624,2.126-0.22,4.251-2.531,6.375
			c-0.75,1.125-1.125,2.344-1.125,3.656h-1.688c-0.063-2.312,0.968-4.5,3.094-6.562c0.5-0.75,0.718-1.562,0.656-2.438
			c-0.375-1.249-1.094-1.843-2.156-1.781h-0.375c-1.312,0.063-1.938,1.031-1.875,2.906h-1.781c-0.063-2.312,0.718-3.75,2.344-4.312
			C209.649,30.884,210.15,30.76,210.9,30.696z M209.118,45.227h2.625v2.719h-2.625V45.227z"/>
	</g>
</g>
</svg>
