<?xml version="1.0" encoding="utf-8"?>
<!-- Generator: Adobe Illustrator 17.0.0, SVG Export Plug-In . SVG Version: 6.00 Build 0)  -->
<!DOCTYPE svg PUBLIC "-//W3C//DTD SVG 1.1//EN" "http://www.w3.org/Graphics/SVG/1.1/DTD/svg11.dtd">
<svg version="1.1" id="图层_1" xmlns="http://www.w3.org/2000/svg" xmlns:xlink="http://www.w3.org/1999/xlink" x="0px" y="0px"
	 width="640px" height="346.41px" viewBox="0 0 640 346.41" enable-background="new 0 0 640 346.41" xml:space="preserve">
<rect x="0" y="0" width="640" height="346.41"/>
<g>
	<g>
		<path fill="#FFFFFF" d="M67.932,136.882v-10.059h3.651V88.45h19.98v-2.274H68.207v-9.783h23.355v-3.705h16.19v3.705h23.218v9.783
			h-23.218v2.274h19.98v38.373h4.409v10.059H67.932z M86.257,99.335h26.386v-2.549H86.257V99.335z M86.257,108.773h26.386v-2.962
			H86.257V108.773z M86.257,117.798h26.386v-2.618H86.257V117.798z M86.257,126.823h26.386v-2.548H86.257V126.823z"/>
		<path fill="#FFFFFF" d="M87.704,159.563h-2.825v8.405l2.825-0.62v12.401l-2.825,0.552v24.871H69.034l-0.345-11.505h3.169v-10.955
			l-4.203,0.758v-12.056l4.203-0.827v-11.024h-3.652V148.54h3.652v-6.752h13.021v6.752h2.825
			C87.704,148.54,87.704,159.563,87.704,159.563z M88.049,171v-9.92h4.271l-1.584-6.201h13.71l1.516,6.201h8.267l1.516-6.201h13.503
			l-1.516,6.201h3.996V171H88.049z M91.011,184.434h-2.825v-10.472h2.825v-2.342h13.641v2.342h9.714v-2.342h13.572v2.342h3.514
			v10.472h-3.514v7.234l-6.889,3.651h10.334v9.99h-15.019l-6.958-3.789l-7.027,3.789h-14.33v-9.99h9.714l-6.752-3.651
			C91.011,191.668,91.011,184.434,91.011,184.434z M89.22,153.983v-9.3h12.125l-0.413-2.962h15.846l0.413,2.962h13.779v9.3H89.22z
			 M114.366,186.363v-1.929h-9.714v1.929l4.754,2.756L114.366,186.363z"/>
		<path fill="#FFFFFF" d="M94.525,247.695l-5.236,1.102v23.769H70.205l-0.275-12.814h4.34v-7.785l-6.201,1.309v-13.021l6.201-1.309
			v-11.574h-6.201V215.66h6.201v-5.994h15.019v5.994h5.236v11.712h-5.236v8.474l5.236-1.102V247.695z M123.047,223.514v48.984
			H99.278l-0.827-13.503h8.956v-35.481h-11.85v-12.676h35.963v12.676L123.047,223.514L123.047,223.514z"/>
	</g>
</g>
<g>
	<path fill="#FFFFFF" d="M352.206,147.938h-65.848l47.034,79.192h19.47v45.284h-52.941l-46.815-80.942l-45.284,81.16h-56.003V227.13
		h22.095l44.19-79.192h-64.973v-42.221h72.411V72.688h54.69v33.029h71.973L352.206,147.938L352.206,147.938z"/>
	<path fill="#FFFFFF" d="M379.332,263.007V84.497h21.001v178.51H379.332z M403.834,272.688v-200h33.033v41.561l10.719,3.281V144
		h13.563l14.001-8.532l-33.471-25.376h58.191l7.657,5.25l14.22-8.969h-76.348V72.688h130.382v42.873l-33.689,22.532L551.28,144
		h27.564v34.346h-46.815v9.845h41.346v33.252h-41.346v16.626h47.034v34.62H441.024v-34.62h43.534v-16.626h-38.502V188.19h38.502
		v-11.595l-2.406,1.531h-40.69v-26.033l-4.594-1.313v121.906h-33.034V272.688z M489.151,173.314h36.096l-16.845-12.688
		L489.151,173.314z"/>
</g>
</svg>
