<?xml version="1.0" encoding="utf-8"?>
<!-- Generator: Adobe Illustrator 17.0.0, SVG Export Plug-In . SVG Version: 6.00 Build 0)  -->
<!DOCTYPE svg PUBLIC "-//W3C//DTD SVG 1.1//EN" "http://www.w3.org/Graphics/SVG/1.1/DTD/svg11.dtd">
<svg version="1.1" id="图层_1" xmlns="http://www.w3.org/2000/svg" xmlns:xlink="http://www.w3.org/1999/xlink" x="0px" y="0px"
	 width="640px" height="346.41px" viewBox="0 0 640 346.41" enable-background="new 0 0 640 346.41" xml:space="preserve">
<rect x="0" y="0" width="640" height="346.41"/>
<g>
	<path fill="#FFFFFF" d="M57.861,128.597l-4.013,0.956v32.468l-20.256-0.923l-0.287-17.771l4.396,0.75v-10.893l-4.969,0.301v-17.677
		l4.969-0.301v-15.479l-4.586-0.75V82.844l4.586,0.75v-8.982h16.147v8.982h4.013v16.434h-4.013v11.943l4.013-0.955
		C57.861,111.016,57.861,128.597,57.861,128.597z M100.476,77.574h21.021v12.707H58.339V77.574H78.5v-3.44h21.976V77.574z
		 M120.828,162.021H98.374l-0.382-3.613H75.92v-26.945h26.658v19.11h2.006v-21.116H74.391v32.564H58.435v-44.986h62.394v44.986
		H120.828z M118.057,91.811v23.123H61.492V91.811H118.057z M99.999,101.557H78.978v4.49h21.021
		C99.999,106.047,99.999,101.557,99.999,101.557z M91.399,140.637h-4.3v8.599h4.3V140.637z"/>
	<path fill="#FFFFFF" d="M159.048,162.021l-5.829-8.39l-1.529,8.408h-20.734V143.98h3.631l4.108-24.174h20.925l-3.249,17.294
		l8.312,8.313h1.72v-28.092h-34.684v-15.288h85.898v15.288h-28.856v6.02h26.85v14.715h-26.85v7.357h29.716v16.607L159.048,162.021
		L159.048,162.021z M131.052,100.123V80.059h31.34l-0.382-5.256h26.658l0.478,5.256h29.237v20.447h-22.167V95.25h-43.57v4.873
		H131.052z"/>
	<path fill="#FFFFFF" d="M231.76,162.021v-46.324l-3.726,1.625V95.633l4.204-2.676V74.612h20.734v31.531l-1.815,0.86v55.018H231.76z
		 M275.618,107.864l-4.204,37.264h4.968V98.881h18.632v63.14h-23.027l-0.573-16.511l-1.625,14.714H252.59v-19.015h2.962
		l3.822-33.346L275.618,107.864L275.618,107.864z M279.057,74.707l-1.051,4.109h37.933v26.849h-17.867V95.442h-24.174l-2.58,10.51
		h-17.104V87.989h2.962l3.44-13.281L279.057,74.707L279.057,74.707z M314.219,141.305h2.58v19.109h-17.485l-3.727-52.455h15.861
		L314.219,141.305z"/>
	<path fill="#FFFFFF" d="M409.577,95.442h-29.142v5.732h3.821l2.389-4.299h20.638l-2.102,4.299h9.172V117.8h-33.442l-11.18,6.401
		h17.486l2.006-3.727h21.689l-6.879,18.92h-42.806v6.401h30.576v-3.917h20.447v20.064h-72.521v-20.639l-3.249,1.815h-11.75V126.4
		h6.497l14.332-8.6h-19.97v-16.626h32.296v-5.732H330.08V81.11h27.805v-6.976h22.55v6.976h29.142V95.442z"/>
	<path fill="#FFFFFF" d="M446.554,74.134v8.695h6.307v15.192h-8.6v64.305h-12.517V98.022h-8.409V82.829h6.02v-8.695H446.554z
		 M430.884,99.36v61.82l-7.262,1.814V99.36H430.884z M452.096,162.994l-6.975-1.814V99.264h6.975V162.994z M490.793,76.905
		l0.478-1.814h20.639l-3.631,16.721h-36.021v4.395h37.646v17.391l-12.421,22.74l5.255,8.218h8.122v17.294h-17.2l-5.351-8.695
		l-4.682,8.695h-15.192v-2.771l-15.288,4.123v-19.315l1.815-0.859V76.905H490.793z M486.781,119.424l4.204-7.644h-18.728v2.962
		h11.561L486.781,119.424z M472.639,144.744l4.969-8.98l-5.351-8.695v17.676h0.382V144.744z"/>
	<path fill="#FFFFFF" d="M530.064,82.924l1.625-8.504h20.448l-1.434,8.504h11.848v79.02h-41.373v-79.02H530.064z M537.326,113.5
		h8.982V96.588h-8.982V113.5z M546.308,126.973h-8.982v19.97h8.982V126.973z M586.82,74.612l-0.956,5.16l21.785-0.75v82.172
		l-35.449,0.75l-0.764-17.199H589.4V95.537h-6.401l-1.434,8.025h-17.772V87.797h2.675l2.389-13.186L586.82,74.612L586.82,74.612z
		 M565.704,107.481h16.626l3.822,31.818h-16.817L565.704,107.481z"/>
	<path fill="#FFFFFF" d="M117.197,206.185H88.055v5.732h3.821l2.389-4.3h20.638l-2.102,4.3h9.172v16.625h-33.44l-11.18,6.402h17.486
		l2.006-3.727h21.689l-6.879,18.919H68.85v6.401h30.576v-3.917h20.447v20.065H47.351v-20.639l-3.249,1.814H32.35v-16.721h6.497
		l14.332-8.6h-19.97v-16.625h32.296v-5.732H37.701v-14.333h27.805v-6.976h22.55v6.976h29.142L117.197,206.185L117.197,206.185z"/>
	<path fill="#FFFFFF" d="M154.175,184.876v8.695h6.306v15.192h-8.6v64.305h-12.517v-64.305h-8.408v-15.192h6.02v-8.695
		L154.175,184.876L154.175,184.876z M138.504,210.102v61.82l-7.262,1.815v-63.636h7.262V210.102z M159.716,273.737l-6.975-1.815
		v-61.916h6.975V273.737z M198.414,187.647l0.478-1.815h20.639l-3.631,16.722h-36.022v4.395h37.646v17.391l-12.422,22.74
		l5.255,8.217h8.122v17.295H201.28l-5.351-8.695l-4.682,8.695h-15.192v-2.771l-15.288,4.873V254.63l1.815-0.86v-66.12h35.832
		V187.647z M194.401,230.167l4.204-7.645h-18.728v2.963h11.562L194.401,230.167z M180.259,255.487l4.969-8.981l-5.351-8.695v17.677
		h0.382V255.487z"/>
	<path fill="#FFFFFF" d="M237.685,193.667l1.625-8.504h20.447l-1.433,8.504h11.848v79.02h-41.373v-79.02L237.685,193.667
		L237.685,193.667z M244.946,224.243h8.982v-16.912h-8.982V224.243z M253.928,237.716h-8.982v19.969h8.982V237.716z
		 M294.441,185.354l-0.956,5.16h21.785v82.172h-35.448l-0.765-17.199h17.963V206.28h-6.402l-1.433,8.025h-17.772V198.54h2.675
		l2.389-13.186L294.441,185.354L294.441,185.354z M273.324,218.224h16.625l3.822,31.817h-16.817L273.324,218.224z"/>
	<path fill="#FFFFFF" d="M409.577,206.185h-29.142v5.732h3.821l2.389-4.3h20.638l-2.102,4.3h9.172v16.625h-33.442l-11.18,6.402
		h17.486l2.006-3.727h21.689l-6.879,18.919h-42.806v6.401h30.576v-3.917h20.447v20.065h-72.521v-20.639l-3.249,1.814h-11.75v-16.721
		h6.497l14.332-8.6h-19.97v-16.625h32.296v-5.732H330.08v-14.333h27.805v-6.976h22.55v6.976h29.142V206.185z"/>
	<path fill="#FFFFFF" d="M446.554,184.876v8.695h6.307v15.192h-8.6v64.305h-12.517v-64.305h-8.409v-15.192h6.02v-8.695
		L446.554,184.876L446.554,184.876z M430.884,210.102v61.82l-7.262,1.815v-63.636h7.262V210.102z M452.096,273.737l-6.975-1.815
		v-61.916h6.975V273.737z M490.793,187.647l0.478-1.815h20.639l-3.631,16.722h-36.021v4.395h37.646v17.391l-12.421,22.74
		l5.255,8.217h8.122v17.295h-17.2l-5.351-8.695l-4.682,8.695h-15.192v-2.771l-15.288,4.873V254.63l1.815-0.86v-66.12h35.831V187.647
		z M486.781,230.167l4.204-7.645h-18.728v2.963h11.561L486.781,230.167z M472.639,255.487l4.969-8.981l-5.351-8.695v17.677h0.382
		V255.487z"/>
</g>
</svg>
