<?xml version="1.0" encoding="utf-8"?>
<!-- Generator: Adobe Illustrator 17.0.0, SVG Export Plug-In . SVG Version: 6.00 Build 0)  -->
<!DOCTYPE svg PUBLIC "-//W3C//DTD SVG 1.1//EN" "http://www.w3.org/Graphics/SVG/1.1/DTD/svg11.dtd">
<svg version="1.1" id="图层_1" xmlns="http://www.w3.org/2000/svg" xmlns:xlink="http://www.w3.org/1999/xlink" x="0px" y="0px"
	 width="335.823px" height="78.455px" viewBox="0 0 335.823 78.455" enable-background="new 0 0 335.823 78.455"
	 xml:space="preserve">
<g>
	<g>
		<path fill="#FFFFFF" d="M38.493,50.055c-0.501-0.375-1.125-0.688-1.875-0.938c0.812-1.063,1.594-2.687,2.344-4.875
			c0.624,0.313,1.312,0.532,2.062,0.656C39.837,47.4,38.993,49.118,38.493,50.055z M47.774,31.305h6c0.938,0,1.969-0.03,3.094-0.094
			v1.781c-1.063-0.062-2.095-0.094-3.094-0.094h-6v2.719h7.219c-0.062,1.312-0.094,2.657-0.094,4.031
			c0,1.312,0.031,2.531,0.094,3.656H39.805c0.062-1.125,0.094-2.374,0.094-3.75c0-1.374-0.032-2.687-0.094-3.938h6v-4.781
			c0-0.999-0.032-1.875-0.094-2.625h2.156C47.805,28.9,47.774,29.931,47.774,31.305z M53.024,41.712v-4.5H41.868v4.5H53.024z
			 M42.805,45.649c0.562-0.188,1.125-0.469,1.688-0.844c0.938,2.126,1.531,3.53,1.781,4.219c-0.688,0.249-1.345,0.53-1.969,0.844
			C44.243,49.18,43.743,47.773,42.805,45.649z M48.149,45.555c0.437-0.249,0.969-0.562,1.594-0.938
			c1.312,2.25,2.094,3.688,2.344,4.312c-0.625,0.312-1.219,0.624-1.781,0.938C49.805,48.68,49.087,47.243,48.149,45.555z
			 M58.18,49.024c-0.375,0.188-1,0.53-1.875,1.031c-0.501-1.188-1.345-2.687-2.531-4.5c0.624-0.312,1.156-0.656,1.594-1.031
			C56.493,46.275,57.43,47.773,58.18,49.024z"/>
		<path fill="#FFFFFF" d="M70.462,32.43v-1.875c-0.062-0.562-0.094-1.219-0.094-1.969h1.969c-0.062,0.75-0.094,1.406-0.094,1.969
			v1.875h4.875c1.125,0,2.124-0.03,3-0.094v1.781c-0.876-0.062-1.875-0.094-3-0.094h-4.875v3.938h7.125
			c1.25,0,2.281-0.03,3.094-0.094v1.688c-0.812-0.062-1.844-0.094-3.094-0.094h-7.125v7.5h5.25v-3.844
			c0-0.375-0.032-0.938-0.094-1.688h2.062c-0.062,0.813-0.094,1.376-0.094,1.688v3.938c0,0.938,0.031,1.875,0.094,2.812h-1.969
			v-1.406H63.337c0.062-0.75,0.094-1.53,0.094-2.344v-2.906c0-0.249-0.032-0.812-0.094-1.688h2.063
			c-0.062,0.876-0.094,1.438-0.094,1.688v3.75h5.156v-7.5h-6.75c-1.375,0-2.5,0.032-3.375,0.094v-1.688
			c0.875,0.063,1.969,0.094,3.281,0.094h6.844v-3.938H65.68c-1.188,0-2.188,0.032-3,0.094v-1.875c0.75,0.063,1.749,0.126,3,0.188
			H70.462z"/>
		<path fill="#FFFFFF" d="M86.774,45.743c0.624-1.062,1.078-2.218,1.359-3.469c0.281-1.249,0.422-2.655,0.422-4.219
			c0-1.562-0.032-3.188-0.094-4.875c0.688,0.126,1.374,0.188,2.062,0.188c-0.188,1.001-0.281,2.25-0.281,3.75
			c0,1.438-0.094,2.906-0.281,4.406s-0.609,2.923-1.266,4.266c-0.656,1.345-1.673,2.703-3.047,4.078
			c-0.562-0.625-1.063-1.063-1.5-1.312C85.274,47.743,86.149,46.806,86.774,45.743z M91.93,43.212V31.305h-4.875v12.469h-1.781
			c0.062-1.437,0.094-3.78,0.094-7.031c0-3.249-0.032-5.562-0.094-6.937h8.344c-0.062,1.376-0.094,3.595-0.094,6.656
			c0,3,0.031,5.25,0.094,6.75H91.93z M89.587,45.462c0.5-0.499,0.905-0.938,1.219-1.312c0.812,0.626,2,1.938,3.562,3.938
			c-0.501,0.312-1,0.75-1.5,1.312C92.243,48.336,91.148,47.025,89.587,45.462z M105.337,46.774c-0.126,1.25-0.531,2.03-1.219,2.344
			c-0.688,0.312-1.75,0.562-3.188,0.75c-0.126-0.75-0.407-1.438-0.844-2.062c1.25,0.062,2.124,0,2.625-0.188
			c0.5-0.188,0.781-0.562,0.844-1.125l0.188-12.844H97.18c-0.562,1.251-1.188,2.438-1.875,3.562c-0.375-0.312-0.876-0.593-1.5-0.844
			c0.812-1.125,1.531-2.515,2.156-4.172c0.624-1.655,1.031-2.983,1.219-3.984c0.75,0.313,1.406,0.562,1.969,0.75
			c-0.313,0.501-0.782,1.532-1.406,3.094h7.875c-0.062,1.063-0.094,2.438-0.094,4.125L105.337,46.774z M102.805,44.337
			c-0.688,0.251-1.281,0.469-1.781,0.656c-0.126-0.624-0.25-1.155-0.375-1.594c-2.5,0.188-4.251,0.532-5.25,1.031
			c-0.188-0.624-0.469-1.28-0.844-1.969c0.5-0.249,1.016-0.921,1.547-2.016c0.53-1.093,0.984-2.64,1.359-4.641
			c0.75,0.375,1.406,0.626,1.969,0.75c-0.375,0.688-0.812,1.61-1.312,2.766c-0.501,1.157-0.97,2.142-1.406,2.953
			c1.312-0.124,2.499-0.218,3.562-0.281c-0.126-0.562-0.375-1.406-0.75-2.531c0.312-0.062,0.844-0.218,1.594-0.469
			C101.805,41.119,102.368,42.9,102.805,44.337z"/>
		<path fill="#FFFFFF" d="M108.524,42.087c0.688,0.063,1.468,0.094,2.344,0.094h16.5c0.875,0,1.906-0.03,3.094-0.094v1.594
			c-1.188-0.062-2.219-0.094-3.094-0.094h-6.938v4.312c0,0.812-0.328,1.374-0.984,1.688c-0.656,0.312-1.485,0.53-2.484,0.656
			c-0.126-0.75-0.407-1.469-0.844-2.156c0.938,0.062,1.578,0.062,1.922,0c0.343-0.062,0.516-0.313,0.516-0.75v-3.75h-7.688
			c-0.876,0-1.656,0.032-2.344,0.094V42.087z M111.196,46.727c0.905-0.469,1.796-1.202,2.672-2.203
			c0.437,0.501,0.999,1.001,1.688,1.5c-0.438,0.188-1.094,0.595-1.969,1.219c-0.876,0.624-1.938,1.312-3.188,2.062
			c-0.313-0.562-0.812-1.063-1.5-1.5C109.523,47.556,110.29,47.196,111.196,46.727z M110.493,37.212
			c0.062-0.938,0.094-1.812,0.094-2.625c0-0.874-0.032-1.781-0.094-2.719h5.438v-1.781h-3.375c-1.5,0-2.625,0.032-3.375,0.094
			v-1.594c0.938,0.063,2.124,0.094,3.562,0.094h13.031c1.125,0,2.405-0.03,3.844-0.094v1.594c-1.438-0.062-2.719-0.094-3.844-0.094
			h-3.281v1.781h5.719c-0.062,0.937-0.094,1.845-0.094,2.719c0,0.813,0.031,1.688,0.094,2.625H110.493z M124.649,38.993
			c1.062,0,2.124-0.03,3.188-0.094v1.594c-1.125-0.062-2.156-0.094-3.094-0.094h-10.875c-1,0-2.001,0.032-3,0.094v-1.594
			c0.999,0.063,2.03,0.094,3.094,0.094H124.649z M115.93,35.712v-2.25h-3.562v2.25H115.93z M120.712,31.868v-1.781h-3.094v1.781
			H120.712z M120.712,35.712v-2.25h-3.094v2.25H120.712z M126.337,35.712v-2.25h-3.844v2.25H126.337z M129.805,47.618
			c-0.562,0.5-1,1.062-1.312,1.688c-1.063-0.812-2.781-1.781-5.156-2.906c0.5-0.437,0.875-0.968,1.125-1.594
			C127.024,46.118,128.805,47.055,129.805,47.618z"/>
	</g>
</g>
</svg>
