<?xml version="1.0" encoding="utf-8"?>
<!-- Generator: Adobe Illustrator 17.0.0, SVG Export Plug-In . SVG Version: 6.00 Build 0)  -->
<!DOCTYPE svg PUBLIC "-//W3C//DTD SVG 1.1//EN" "http://www.w3.org/Graphics/SVG/1.1/DTD/svg11.dtd">
<svg version="1.1" id="图层_1" xmlns="http://www.w3.org/2000/svg" xmlns:xlink="http://www.w3.org/1999/xlink" x="0px" y="0px"
	 width="640px" height="346.41px" viewBox="0 0 640 346.41" enable-background="new 0 0 640 346.41" xml:space="preserve">
<rect x="0" y="0" width="640" height="346.41"/>
<g>
	<g>
		<path fill="#FFFFFF" d="M134.064,160.926v-35.842h-5.984v-19.689h6.563l5.598-11.196H128.08V77.888h20.365l2.895-5.694h23.067
			l-2.606,5.694h45.266v16.311h-52.601l-9.555,21.233v45.494L134.064,160.926L134.064,160.926z M197.474,126.724v15.153h19.496
			v19.049h-60.708v-19.049h19.4v-15.153h-17.083v-16.793h17.083V97.867h21.812v12.064h16.794v16.793H197.474z"/>
		<path fill="#FFFFFF" d="M309.528,144.194h5.984v16.021h-20.558l-9.652-35.807v36.579h-30.016l-0.965-6.563l-6.563,4.729H227.2
			v-13.995h12.547l20.075-10.906h5.308v-5.887l-17.855,10.617h-19.207v-13.609h13.126l16.89-8.3h6.177l-2.413-3.668l-21.04,9.555
			h-11.872v-12.547h5.984l11.775-4.633h-13.319v-9.362h-6.563v-20.17h32.043l-0.386-3.571h23.646l0.386,3.571h32.525v20.268h-7.528
			v9.266h-28.955l-0.386,0.193l7.142,9.845v5.308l6.853-13.029h19.496l-7.528,15.346L309.528,144.194z M245.345,93.33h50.767v-2.799
			h-50.767V93.33z M265.131,150.564V146.8l-5.308,3.764H265.131z"/>
		<path fill="#FFFFFF" d="M384.424,100.858v16.697h29.63v18.241h-29.63v25.129h-24.032v-25.129h-36v-18.241h36v-16.697h-9.555
			l-2.413,11.582h-22.97V93.427h5.019l4.536-19.496h21.523l-2.027,9.748h5.887V72.773h24.032v10.906h26.639v17.179H384.424z"/>
		<path fill="#FFFFFF" d="M422.933,96.709h23.839v47.485l4.44,3.474h60.901v13.258h-63.7l-4.922-5.826l-20.268,5.826v-18.662
			l4.343-2.413v-27.41h-4.633V96.709z M424.188,73.159h19.11l3.088,22.005h-19.4L424.188,73.159z M448.413,86.285V74.22h61.963
			v12.064L448.413,86.285L448.413,86.285z M509.314,110.317v35.904h-59.357v-35.904
			C449.957,110.317,509.314,110.317,509.314,110.317z M505.357,87.829v20.654H452.95V87.829H505.357z M466.268,124.312h6.177v-4.247
			h-6.177V124.312z M466.268,136.376h6.177v-4.054h-6.177V136.376z M488.757,96.709h-19.496v2.606h19.496V96.709z M486.344,120.065
			v4.247h5.694v-4.247H486.344z M492.038,132.322h-5.694v4.054h5.694V132.322z"/>
		<path fill="#FFFFFF" d="M155.876,183.802l-13.319,25.769h1.93l3.861-7.046h14.381l5.598-18.145h40.343l6.37,22.391h2.895v15.732
			h-5.405v2.799h-48.74v-2.799h-4.633v-6.756l-11.003,20.944h12.257v15.925h-31.367v-14.381l6.949-12.836h-8.107V206l11.099-22.198
			H155.876z M160.702,271.148h-32.236v-15.732h32.236V271.148z M215.233,227.812v44.687h-52.794v-44.687H215.233z M177.688,212.563
			h20.848l-4.633-13.994h-11.486L177.688,212.563z M198.15,241.904h-18.82v16.311h18.82V241.904z"/>
		<path fill="#FFFFFF" d="M248.337,207.737v48.644h6.177l-1.448,16.118h-22.874v-48.257h-4.632v-16.504h22.777V207.737z
			 M226.622,183.705h19.496l3.378,21.233h-19.593L226.622,183.705z M315.705,271.148h-43.142v1.373h-18.049v-47.989h-5.308v-15.925
			h2.606l6.563-24.611h18.338l-2.22,8.686h7.239l-0.773-8.396h19.11l0.869,8.396h13.609v14.091h-12.933v7.239h11.679v13.319h-11.679
			v7.914h11.679v13.512h-11.679v7.914h14.091L315.705,271.148L315.705,271.148z M272.563,214.011H282.6v-7.239h-10.038
			L272.563,214.011L272.563,214.011z M272.563,235.244H282.6v-7.914h-10.038L272.563,235.244L272.563,235.244z M272.563,256.67
			H282.6v-7.914h-10.038L272.563,256.67L272.563,256.67z"/>
		<path fill="#FFFFFF" d="M335.587,224.049h-10.52v-11.293h18.434l1.641-2.316h-15.635v-10.81h23.26l1.351-2.027h-25.093v-11.871
			h60.032l0.869-1.834h21.716l-4.247,13.705H376.51l-1.448,2.027h34.359v10.81h-42.273l-1.737,2.316h48.45v11.293h-56.654
			l-1.834,2.413H410v46.059h-73.544v-23.668h-11.871v-16.118h4.922L335.587,224.049z M355.47,240.263h35.711v-2.413H355.47V240.263z
			 M355.47,251.073h35.711v-2.992H355.47V251.073z M391.18,258.794h-35.71v2.703h35.711v-2.703H391.18z"/>
		<path fill="#FFFFFF" d="M449.499,211.95v-21.518l5.38-6.066h40.518l5.036,6.066v34.222l-15.91,11.56v9.958h-20.602v-21.518
			l15.108-11.789v-9.157h-8.126v9.729L449.499,211.95z M463.921,272.613v-22.09h20.602v22.09H463.921z"/>
	</g>
</g>
</svg>
