<?xml version="1.0" encoding="utf-8"?>
<!-- Generator: Adobe Illustrator 17.0.0, SVG Export Plug-In . SVG Version: 6.00 Build 0)  -->
<!DOCTYPE svg PUBLIC "-//W3C//DTD SVG 1.1//EN" "http://www.w3.org/Graphics/SVG/1.1/DTD/svg11.dtd">
<svg version="1.1" id="图层_1" xmlns="http://www.w3.org/2000/svg" xmlns:xlink="http://www.w3.org/1999/xlink" x="0px" y="0px"
	 width="640px" height="346.41px" viewBox="0 0 640 346.41" enable-background="new 0 0 640 346.41" xml:space="preserve">
<rect x="0" y="0" width="640" height="346.41"/>
<g>
	<path fill="#FFFFFF" d="M313.684,125.504v-12.729h12.632v12.729H313.684z"/>
</g>
<g>
	<path fill="#FFFFFF" d="M111.56,161.843H69.583V143.09h19.628v-30.316H69.778V93.923h19.434V72.74h22.349v89.103H111.56z
		 M139.641,112.773v30.316h19.628v18.753h-42.073V72.74h22.445v21.183h19.726v18.851L139.641,112.773L139.641,112.773z"/>
	<path fill="#FFFFFF" d="M258.187,91.202h-89.395V76.821h32.26l-0.292-4.275h24.973l0.389,4.275h32.065V91.202z M199.983,132.693
		l-8.842,29.053h-21.863v-16.13h5.733l3.984-12.923L199.983,132.693L199.983,132.693z M251.58,93.826v35.661h-26.333v32.551h-28.373
		l-0.777-16.421h7.579v-16.13h-28.373V93.826H251.58z M231.175,108.109h-36.05v7.871h36.05V108.109z M249.248,132.693l3.983,12.923
		h5.053v16.13h-21.183l-8.939-29.053L249.248,132.693L249.248,132.693z"/>
	<path fill="#FFFFFF" d="M376.778,162.021v-19.126h27.984V72.351h23.709v21.475h34.786v18.365h-34.786v30.705h37.507v19.126h-89.2
		V162.021z"/>
	<path fill="#FFFFFF" d="M479.485,94.7l-3.887-22.012h17.199l4.275,22.012H479.485z M475.792,161.94v-16.907h2.818l2.818-23.515
		h16.519v-2.041H480.36l-3.595-21.863h17.393l3.79,19.822v-3.498h4.373l0.777-21.766h58.981l-0.194,21.766h4.566v13.021h-4.566
		v9.037h4.611v13.215h-4.806v12.826h-47.807l-0.875-10.98h29.733v-1.846h-41.685l0.777-22.251h-3.498l-4.081,34.98L475.792,161.94
		L475.792,161.94z M498.53,78.084h6.316l2.526-5.733h19.822l-1.36,3.012h40.661v13.215h-46.394l-1.069,2.429H498.53V78.084z
		 M538.466,128.126l1.555,7.871h2.818v-9.037H519.81l-0.291,9.037h5.053l-1.555-7.871H538.466z M520.296,113.939h4.955l-1.457-6.996
		h15.449l1.458,6.996h2.332v-8.454h-22.349L520.296,113.939z"/>
</g>
<path fill="#FFFFFF" d="M69.583,272.412v-22.937l20.879-20.136v-9.455h-5.241v7.792H69.583v-18.122l4.076-4.641h28.947l3.494,4.641
	v27.402L85.138,256.83h21.627v15.583H69.583V272.412z"/>
<path fill="#FFFFFF" d="M113.175,268.015v-58.307l3.91-4.802h29.78l3.327,4.802v58.307l-3.327,4.552h-29.78L113.175,268.015z
	 M134.554,220.038h-5.74v37.645h5.74V220.038z"/>
<path fill="#FFFFFF" d="M155.754,218.483v-11.819l12.394-1.751h11.895v67.499h-15.472v-53.929L155.754,218.483L155.754,218.483z"/>
<path fill="#FFFFFF" d="M188.268,267.86v-20.049l15.721-1.138v10.769h5.906v-14.796H192.26l-3.827-4.64v-33.093h35.187v15.584
	h-19.632v6.829h18.051l3.493,4.641v35.894l-3.493,4.552h-29.78L188.268,267.86z"/>
<path fill="#FFFFFF" d="M262.435,272.688v-14.23h-31.126v-12.45h5.25v-20.251h25.876v-7.425H249.91l-2.55,6.225h-16.201v-13.35
	h4.275l3.825-8.101h17.025l-1.275,3.075h44.777v12.15h-19.801v7.425h18.9v11.775h-18.9v8.476h21v12.45h-21v14.23h-17.55V272.688z
	 M253.06,246.008h9.375v-8.476h-9.375V246.008z"/>
<path fill="#FFFFFF" d="M304.857,268.338v-20.203l15.973-1.147v10.852h6.001v-14.91h-17.917l-3.888-4.676v-33.348h35.75v15.704
	h-19.945v6.881h18.34l3.549,4.676v36.171l-3.746,4.39h-30.257L304.857,268.338z"/>
<path fill="#FFFFFF" d="M353.863,204.906h58.728v67.502h-30.376l-0.675-11.551h13.8v-7.95h-24.376v17.626l-21.075,2.154v-14.605
	l3.975-1.2L353.863,204.906L353.863,204.906z M370.964,217.807v5.4h24.376v-5.4H370.964z M370.964,241.507h24.376v-6.75h-24.376
	V241.507z"/>
<path fill="#FFFFFF" d="M418.522,272.592v-22.779l20.996-19.998v-9.39h-5.27v7.738h-15.726v-17.997l4.099-5.26h29.11l3.514,5.26
	v27.213l-21.08,19.737h21.749v15.476L418.522,272.592L418.522,272.592z"/>
<path fill="#FFFFFF" d="M462.437,268.071v-57.905l3.932-5.26h29.946l3.346,5.26v57.905l-3.346,4.521h-29.946L462.437,268.071z
	 M483.935,220.425h-5.771v37.386h5.771V220.425z"/>
<path fill="#FFFFFF" d="M566.495,204.981v67.707h-59.702v-67.707L566.495,204.981L566.495,204.981z M522.844,232.057h27.001v-14.326
	h-27.001V232.057z M549.844,244.958h-27.001v13.726h27.001V244.958z"/>
<line fill="none" stroke="#FFFFFF" stroke-miterlimit="10" x1="69.583" y1="183.209" x2="566.495" y2="183.074"/>
</svg>
