<?xml version="1.0" encoding="utf-8"?>
<!-- Generator: Adobe Illustrator 17.0.0, SVG Export Plug-In . SVG Version: 6.00 Build 0)  -->
<!DOCTYPE svg PUBLIC "-//W3C//DTD SVG 1.1//EN" "http://www.w3.org/Graphics/SVG/1.1/DTD/svg11.dtd">
<svg version="1.1" id="图层_1" xmlns="http://www.w3.org/2000/svg" xmlns:xlink="http://www.w3.org/1999/xlink" x="0px" y="0px"
	 width="360px" height="26px" viewBox="0 0 360 26" enable-background="new 0 0 360 26" xml:space="preserve">
<g enable-background="new    ">
	<path fill="#FFFFFF" d="M4.219,8.765c-0.688,1-1.251,1.875-1.688,2.625c-0.375-0.437-0.907-0.875-1.594-1.312
		c1.187-1.25,2.234-2.672,3.141-4.266c0.905-1.594,1.578-3.266,2.016-5.016C6.53,1.109,7.25,1.421,8.25,1.733
		C7.875,2.234,7.125,3.577,6,5.765v12.188c0,1.938,0.031,3.5,0.094,4.688H4.125c0.062-1,0.094-2.593,0.094-4.781V8.765z
		 M10.547,4.733c0.781-1.875,1.172-3.094,1.172-3.656c0.75,0.313,1.562,0.562,2.438,0.75c-0.375,0.313-0.938,1.281-1.688,2.906
		h9.844c-0.188,0.562-0.469,1.328-0.844,2.297C21.094,8,20.75,8.921,20.438,9.796c-0.625-0.188-1.251-0.343-1.875-0.469
		c0.437-0.938,0.844-1.937,1.219-3h-7.969c-0.75,1.626-1.626,3.126-2.625,4.5c-0.501-0.312-1.157-0.562-1.969-0.75
		C8.656,8.39,9.765,6.608,10.547,4.733z M11.156,11.952c0.75,0.375,1.343,0.688,1.781,0.938c-0.375,0.625-0.938,1.5-1.688,2.625
		s-1.594,2.25-2.531,3.375c-0.501-0.437-1-0.844-1.5-1.219C8.78,16.046,10.093,14.141,11.156,11.952z M13.594,20.437
		c0.375-0.155,0.562-0.483,0.562-0.984v-7.875c0-1.5-0.032-2.593-0.094-3.281h1.969c-0.063,0.688-0.094,1.781-0.094,3.281v8.906
		c0,0.812-0.344,1.359-1.031,1.641c-0.688,0.281-1.626,0.516-2.812,0.703c-0.126-0.625-0.438-1.345-0.938-2.156
		C12.406,20.671,13.219,20.592,13.594,20.437z M22.875,17.577c-0.375,0.25-0.97,0.625-1.781,1.125c-1.063-2-2.282-3.999-3.656-6
		c0.624-0.375,1.125-0.688,1.5-0.938C20.438,13.827,21.75,15.765,22.875,17.577z"/>
	<path fill="#FFFFFF" d="M41.625,1.452c0.938,0,2-0.031,3.188-0.094v1.594c-1.188-0.062-2.25-0.094-3.188-0.094h-4.594v1.594h9.375
		v4.406h-1.781v-3h-7.594v2.625c0,1.063,0.031,2.031,0.094,2.906h-1.969c0.062-0.812,0.094-1.749,0.094-2.812V5.858h-7.688v3h-1.875
		c0-0.688,0.015-1.374,0.047-2.062c0.031-0.688,0.015-1.468-0.047-2.344h9.562V2.858h-4.594c-0.938,0-1.875,0.032-2.812,0.094V1.358
		c0.938,0.062,1.843,0.094,2.719,0.094H41.625z M43.313,12.608c0.875,0,1.906-0.031,3.094-0.094v1.594
		c-1.188-0.062-2.219-0.094-3.094-0.094h-6.469c-0.313,0.562-0.532,1.125-0.656,1.688H45c-0.063,0.812-0.094,1.532-0.094,2.156
		v2.812c0,0.75-0.188,1.233-0.562,1.453c-0.375,0.219-1.188,0.453-2.438,0.703c-0.063-0.562-0.344-1.219-0.844-1.969
		c0.999,0,1.594-0.062,1.781-0.188c0.188-0.126,0.281-0.437,0.281-0.938v-2.625h-3.656v4.781h-1.781v-4.781h-3.281v4.781h-1.781
		v-4.781h-3.562v5.531h-1.781c0.062-0.876,0.094-1.813,0.094-2.812v-1.5c0-0.812-0.032-1.688-0.094-2.625H34.5
		c0.188-0.562,0.343-1.125,0.469-1.688h-5.906c-1.063,0-2.095,0.032-3.094,0.094v-1.594c0.938,0.062,1.937,0.094,3,0.094H43.313z
		 M33.281,11.296h-4.594V9.983h4.594V11.296z M33.375,8.671h-4.406V7.358h4.406V8.671z M42.75,8.577h-4.406V7.265h4.406V8.577z
		 M42.844,11.108h-4.406V9.796h4.406V11.108z"/>
	<path fill="#FFFFFF" d="M67.125,1.733c0.938,0,2-0.031,3.188-0.094v1.594c-1.188-0.062-2.25-0.094-3.188-0.094h-3.75v2.438h5.25
		c-0.063,1.063-0.094,2.062-0.094,3s0.031,1.907,0.094,2.906h-9.938c0.687,0.438,1.219,0.782,1.594,1.031
		c-0.562,0.375-0.97,0.719-1.219,1.031h8.812c0.999,0,2.062-0.062,3.188-0.188v1.781c-1.125-0.062-2.219-0.094-3.281-0.094h-2.719
		c-0.625,1.063-1.469,2.219-2.531,3.469c2.812,0.75,5.468,1.562,7.969,2.438c-0.625,0.437-1.125,0.969-1.5,1.594
		c-2.376-1.063-5.001-2.001-7.875-2.812c-0.876,0.625-1.985,1.187-3.328,1.688c-1.345,0.5-2.625,0.844-3.844,1.031
		s-2.329,0.343-3.328,0.469c-0.188-0.812-0.595-1.469-1.219-1.969c1.187,0.062,2.438,0.031,3.75-0.094
		c1.312-0.126,2.499-0.36,3.562-0.703c1.062-0.343,1.906-0.703,2.531-1.078c-2.062-0.5-4.094-0.938-6.094-1.312
		c0.938-0.938,1.812-1.843,2.625-2.719h-3.938c-1.063,0-2.095,0.032-3.094,0.094v-1.688c1.25,0.062,2.281,0.094,3.094,0.094h4.969
		c0.624-0.75,1.125-1.438,1.5-2.062h-6.938c0.062-0.999,0.094-1.969,0.094-2.906s-0.032-1.937-0.094-3h5.156V3.14h-3.656
		c-1.063,0-2.188,0.032-3.375,0.094V1.64c1.187,0.062,2.281,0.094,3.281,0.094H67.125z M56.531,10.077v-3H53.25v3H56.531z
		 M60.75,17.952c0.75-0.75,1.531-1.719,2.344-2.906h-5.062c-0.562,0.562-1.125,1.157-1.688,1.781
		C57.343,17.015,58.812,17.39,60.75,17.952z M61.688,5.577V3.14h-3.375v2.438H61.688z M61.688,10.077v-3h-3.375v3H61.688z
		 M66.75,10.077v-3h-3.375v3H66.75z"/>
	<path fill="#FFFFFF" d="M76.5,17.296c-0.562,1.438-1.094,2.657-1.594,3.656c-0.562-0.438-1.188-0.844-1.875-1.219
		c0.687-1.125,1.312-2.265,1.875-3.422c0.562-1.156,1.125-2.64,1.688-4.453c0.437,0.438,0.999,0.75,1.688,0.938
		C77.656,14.358,77.063,15.858,76.5,17.296z M76.359,4.312c0.781,0.782,1.515,1.547,2.203,2.297c-0.562,0.562-1.031,1.063-1.406,1.5
		c-0.688-0.999-1.969-2.438-3.844-4.312c0.5-0.375,0.968-0.781,1.406-1.219C75.031,2.952,75.577,3.53,76.359,4.312z M80.531,6.28
		c0.938-1.843,1.594-3.577,1.969-5.203c0.687,0.313,1.437,0.595,2.25,0.844c-0.375,0.438-0.876,1.5-1.5,3.188h6.844
		c1.437,0,2.75-0.031,3.938-0.094v1.688c-1.251-0.062-2.563-0.094-3.938-0.094h-1.125v3.188c1.812,0,3.281-0.031,4.406-0.094v1.688
		c-1.125-0.062-2.594-0.094-4.406-0.094v3.188c1.875,0,3.343-0.031,4.406-0.094v1.594c-1.063-0.062-2.531-0.094-4.406-0.094v3.188
		c2.625,0,4.531-0.031,5.719-0.094v1.875c-1.188-0.062-2.531-0.094-4.031-0.094h-7.594v1.969h-1.969
		c0.062-1.125,0.094-2.719,0.094-4.781V9.046c-0.375,0.688-0.844,1.5-1.406,2.438c-0.501-0.624-1.094-1.093-1.781-1.406
		C78.75,9.39,79.594,8.124,80.531,6.28z M87.094,9.796V6.608h-4.031v3.188H87.094z M87.094,14.483v-3.188h-4.031v3.188H87.094z
		 M87.094,19.077V15.89h-4.031v3.188H87.094z M90,3.608c-0.438,0.25-0.938,0.625-1.5,1.125c-0.438-0.75-1.219-1.655-2.344-2.719
		C86.531,1.827,87,1.452,87.563,0.89C88.688,1.953,89.499,2.858,90,3.608z"/>
	<path fill="#FFFFFF" d="M96.938,11.671c1.562-0.125,3.265-0.375,5.109-0.75c1.843-0.375,3.328-0.875,4.453-1.5
		c-1.438-1.187-2.625-2.25-3.562-3.188c-0.75,0.75-1.626,1.562-2.625,2.438c-0.562-0.5-1.063-0.844-1.5-1.031
		c2.438-1.875,4.343-4.219,5.719-7.031c0.624,0.375,1.28,0.688,1.969,0.938l-0.75,0.75c-0.188,0.188-0.501,0.562-0.938,1.125h10.406
		c-0.562,1.063-1.298,2.109-2.203,3.141c-0.907,1.031-1.985,2.016-3.234,2.953c0.999,0.501,2.452,0.906,4.359,1.219
		c1.906,0.313,3.577,0.407,5.016,0.281c-0.375,0.625-0.656,1.281-0.844,1.969c-2.25-0.249-4.125-0.516-5.625-0.797
		s-3.032-0.828-4.594-1.641c-1.75,0.812-3.579,1.438-5.484,1.875c-1.907,0.438-3.454,0.782-4.641,1.031
		C97.843,12.89,97.5,12.296,96.938,11.671z M115.031,17.858c0,2.125,0.031,3.781,0.094,4.969h-1.781v-1.219H102.75v1.219h-1.781
		c0.062-1.188,0.094-2.844,0.094-4.969c0-2.188-0.032-3.844-0.094-4.969h14.156C115.062,14.015,115.031,15.671,115.031,17.858z
		 M107.156,16.546v-2.25h-4.406v2.25H107.156z M107.156,20.108v-2.156h-4.406v2.156H107.156z M108.281,8.577
		c1.312-0.812,2.687-2.094,4.125-3.844h-8.25l-0.281,0.281C105.188,6.266,106.655,7.452,108.281,8.577z M113.344,16.546v-2.25h-4.5
		v2.25H113.344z M113.344,20.108v-2.156h-4.5v2.156H113.344z"/>
	<path fill="#FFFFFF" d="M128.156,3.89c-0.375,0.688-0.75,1.438-1.125,2.25v12.844c0,1.625,0.031,2.906,0.094,3.844h-2.156
		c0.062-1.063,0.094-2.282,0.094-3.656V9.608c-0.75,1.312-1.563,2.563-2.438,3.75c-0.375-0.437-0.844-0.905-1.406-1.406
		c1.125-1.125,2.312-2.906,3.562-5.344c1.25-2.438,2.03-4.312,2.344-5.625c0.687,0.438,1.406,0.782,2.156,1.031
		C128.906,2.577,128.531,3.202,128.156,3.89z M134.156,8.671V3.983c0-0.875-0.032-1.812-0.094-2.812h2.156
		c-0.126,1-0.188,1.938-0.188,2.812v4.688h3.844c0.812,0,1.781-0.031,2.906-0.094v1.875c-1.063-0.062-2.001-0.094-2.812-0.094
		h-3.938v9.188c0,0.999,0.031,2.03,0.094,3.094h-2.062c0.062-1,0.094-2.001,0.094-3v-9.281h-3.281c-1,0-1.969,0.032-2.906,0.094
		V8.577c0.938,0.062,1.875,0.094,2.812,0.094H134.156z"/>
	<path fill="#FFFFFF" d="M155.297,4.968c-0.844,1.345-1.922,2.766-3.234,4.266s-3.094,3.188-5.344,5.062
		c-0.438-0.688-0.938-1.25-1.5-1.688c1.562-0.875,3.312-2.452,5.25-4.734c1.937-2.281,3.375-4.484,4.312-6.609
		c0.812,0.562,1.5,0.97,2.062,1.219C156.656,2.797,156.141,3.624,155.297,4.968z M158.578,10.171c-1.031,1.438-2.329,3-3.891,4.688
		c-1.563,1.688-2.938,3.062-4.125,4.125c1.374-0.062,3.171-0.155,5.391-0.281c2.218-0.125,4.359-0.249,6.422-0.375
		c-1-1.749-1.844-3.094-2.531-4.031c0.624-0.375,1.156-0.781,1.594-1.219c0.999,1.375,1.969,2.766,2.906,4.172
		s1.749,2.734,2.438,3.984c-0.438,0.125-1.094,0.53-1.969,1.219c-0.375-0.75-0.844-1.562-1.406-2.438
		c-3.063,0.126-6.328,0.344-9.797,0.656s-5.391,0.594-5.766,0.844c-0.25-0.75-0.532-1.531-0.844-2.344
		c0.938-0.062,2.578-1.312,4.922-3.75s4.578-5.593,6.703-9.469c0.624,0.562,1.343,1.063,2.156,1.5
		C160.343,7.827,159.609,8.733,158.578,10.171z"/>
	<path fill="#FFFFFF" d="M175.5,3.233c1.625-0.188,2.937,0.656,3.938,2.531c0.624,2.125-0.22,4.251-2.531,6.375
		c-0.75,1.125-1.125,2.344-1.125,3.656h-1.688c-0.063-2.312,0.968-4.5,3.094-6.562c0.5-0.75,0.718-1.562,0.656-2.438
		c-0.375-1.25-1.094-1.843-2.156-1.781h-0.375c-1.312,0.062-1.938,1.031-1.875,2.906h-1.781c-0.063-2.312,0.718-3.75,2.344-4.312
		C174.249,3.421,174.75,3.296,175.5,3.233z M173.719,17.765h2.625v2.719h-2.625V17.765z"/>
</g>
</svg>
