<?xml version="1.0" encoding="utf-8"?>
<!-- Generator: Adobe Illustrator 17.0.0, SVG Export Plug-In . SVG Version: 6.00 Build 0)  -->
<!DOCTYPE svg PUBLIC "-//W3C//DTD SVG 1.1//EN" "http://www.w3.org/Graphics/SVG/1.1/DTD/svg11.dtd">
<svg version="1.1" id="图层_1" xmlns="http://www.w3.org/2000/svg" xmlns:xlink="http://www.w3.org/1999/xlink" x="0px" y="0px"
	 width="360px" height="26px" viewBox="0 0 360 26" enable-background="new 0 0 360 26" xml:space="preserve">
<g enable-background="new    ">
	<path fill="#FFFFFF" d="M4.219,8.765c-0.688,1-1.251,1.875-1.688,2.625c-0.375-0.437-0.907-0.875-1.594-1.312
		c1.187-1.25,2.234-2.672,3.141-4.266c0.905-1.594,1.578-3.266,2.016-5.016C6.53,1.109,7.25,1.421,8.25,1.733
		C7.875,2.234,7.125,3.577,6,5.765v12.188c0,1.938,0.031,3.5,0.094,4.688H4.125c0.062-1,0.094-2.593,0.094-4.781V8.765z
		 M10.547,4.733c0.781-1.875,1.172-3.094,1.172-3.656c0.75,0.313,1.562,0.562,2.438,0.75c-0.375,0.313-0.938,1.281-1.688,2.906
		h9.844c-0.188,0.562-0.469,1.328-0.844,2.297C21.094,8,20.75,8.921,20.438,9.796c-0.625-0.188-1.251-0.343-1.875-0.469
		c0.437-0.938,0.844-1.937,1.219-3h-7.969c-0.75,1.626-1.626,3.126-2.625,4.5c-0.501-0.312-1.157-0.562-1.969-0.75
		C8.656,8.39,9.765,6.608,10.547,4.733z M11.156,11.952c0.75,0.375,1.343,0.688,1.781,0.938c-0.375,0.625-0.938,1.5-1.688,2.625
		s-1.594,2.25-2.531,3.375c-0.501-0.437-1-0.844-1.5-1.219C8.78,16.046,10.093,14.141,11.156,11.952z M13.594,20.437
		c0.375-0.155,0.562-0.483,0.562-0.984v-7.875c0-1.5-0.032-2.593-0.094-3.281h1.969c-0.063,0.688-0.094,1.781-0.094,3.281v8.906
		c0,0.812-0.344,1.359-1.031,1.641c-0.688,0.281-1.626,0.516-2.812,0.703c-0.126-0.625-0.438-1.345-0.938-2.156
		C12.406,20.671,13.219,20.592,13.594,20.437z M22.875,17.577c-0.375,0.25-0.97,0.625-1.781,1.125c-1.063-2-2.282-3.999-3.656-6
		c0.624-0.375,1.125-0.688,1.5-0.938C20.438,13.827,21.75,15.765,22.875,17.577z"/>
	<path fill="#FFFFFF" d="M29.813,3.983c0-0.875-0.032-1.688-0.094-2.438h1.969c-0.063,1.063-0.094,2.062-0.094,3v14.906
		c0,0.375,0.031,1.5,0.094,3.375h-1.969c0.062-1.875,0.094-3,0.094-3.375v-5.344c-1.312,1.562-2.438,2.875-3.375,3.938
		c-0.625-0.688-1.157-1.187-1.594-1.5c2.25-1.875,3.905-3.656,4.969-5.344V3.983z M29.625,8.39C29,8.827,28.437,9.296,27.938,9.796
		c-0.688-1.25-1.72-2.687-3.094-4.312c0.5-0.437,1.031-0.875,1.594-1.312C27.687,5.733,28.749,7.14,29.625,8.39z M38.156,3.327h8.25
		c-1.125,2.25-2.266,3.938-3.422,5.062c-1.157,1.125-2.344,1.969-3.562,2.531s-2.735,1.125-4.547,1.688
		c-0.313-0.688-0.75-1.28-1.312-1.781c0.875-0.125,1.812-0.328,2.812-0.609c0.999-0.281,1.812-0.609,2.438-0.984
		c-0.562-0.624-1.188-1.25-1.875-1.875c0.249-0.125,0.687-0.5,1.312-1.125c1.062,1,1.781,1.72,2.156,2.156
		c1.187-0.812,2.187-2,3-3.562h-6.188c-0.562,0.812-1.532,1.907-2.906,3.281c-0.438-0.437-0.97-0.844-1.594-1.219
		c1.125-0.875,2.016-1.749,2.672-2.625c0.656-0.875,1.327-2.062,2.016-3.562c0.999,0.375,1.718,0.656,2.156,0.844
		C39,2.171,38.531,2.765,38.156,3.327z M41.906,12.983V12.14c0-0.5-0.032-1.125-0.094-1.875h2.062
		c-0.063,0.688-0.094,1.219-0.094,1.594v1.125h0.469c0.938,0,1.812-0.031,2.625-0.094v1.781c-0.938-0.062-1.813-0.094-2.625-0.094
		h-0.469v5.625c0,1.062-0.344,1.749-1.031,2.062c-0.688,0.312-1.532,0.53-2.531,0.656c-0.126-0.75-0.344-1.5-0.656-2.25
		c1.25,0.062,1.953,0.015,2.109-0.141c0.155-0.155,0.234-0.39,0.234-0.703v-5.25h-5.25c-1.188,0-2.344,0.032-3.469,0.094V12.89
		c1.125,0.062,2.281,0.094,3.469,0.094H41.906z M39,18.702c-0.562,0.313-1.125,0.688-1.688,1.125
		c-0.562-1.312-1.251-2.531-2.062-3.656c0.562-0.312,1.062-0.656,1.5-1.031C37.812,16.766,38.562,17.952,39,18.702z"/>
	<path fill="#FFFFFF" d="M70.969,9.515c-0.562,0.501-1,1.063-1.312,1.688c-4.251-1.937-7.469-4.438-9.656-7.5
		c-2.938,3.313-6.157,5.969-9.656,7.969c-0.625-0.875-1.157-1.406-1.594-1.594c2.312-0.812,4.515-2.156,6.609-4.031
		c2.093-1.875,3.516-3.594,4.266-5.156c0.562,0.375,1.219,0.719,1.969,1.031l-0.562,0.562C63.218,5.609,66.53,7.953,70.969,9.515z
		 M54.844,20.296c4.125-0.125,7.312-0.249,9.562-0.375c-0.562-0.624-1.406-1.438-2.531-2.438c0.437-0.375,0.875-0.781,1.312-1.219
		c0.875,0.812,1.718,1.609,2.531,2.391c0.812,0.782,1.749,1.734,2.812,2.859c-0.438,0.375-0.97,0.844-1.594,1.406
		c-0.562-0.812-1.031-1.375-1.406-1.688c-1.438,0.062-3.766,0.188-6.984,0.375c-3.22,0.188-5.297,0.406-6.234,0.656
		c-0.313-0.812-0.562-1.438-0.75-1.875c0.999-0.312,2.187-1.109,3.562-2.391c1.374-1.28,2.344-2.328,2.906-3.141h-2.719
		c-1.688,0-3.25,0.032-4.688,0.094v-1.594c1.5,0.062,3.031,0.094,4.594,0.094h9.375c1.562,0,3.094-0.031,4.594-0.094v1.594
		c-1.5-0.062-3.157-0.094-4.969-0.094h-5.625c0.5,0.501,0.968,0.876,1.406,1.125C59.562,16.297,57.844,17.733,54.844,20.296z
		 M61.688,9.14c1.374,0,2.499-0.031,3.375-0.094v1.688C64.125,10.672,63,10.64,61.688,10.64h-4.031c-1.188,0-2.188,0.032-3,0.094
		V9.046c0.812,0.062,1.781,0.094,2.906,0.094H61.688z"/>
	<path fill="#FFFFFF" d="M84.656,10.077c-0.126,1.688-0.375,3.281-0.75,4.781s-1.188,2.906-2.438,4.219
		c-1.251,1.312-3.562,2.656-6.938,4.031c-0.126-0.625-0.625-1.251-1.5-1.875c2.124-0.501,3.812-1.109,5.062-1.828
		c1.25-0.718,2.25-1.625,3-2.719c0.75-1.093,1.25-2.546,1.5-4.359c0.249-1.812,0.343-3.938,0.281-6.375
		c0.812,0.126,1.594,0.22,2.344,0.281C84.968,7.109,84.781,8.39,84.656,10.077z M91.5,12.421c0,0.75,0.031,1.844,0.094,3.281h-1.875
		V4.265H78.656v11.906h-1.875c0.062-1.562,0.094-2.938,0.094-4.125V5.765c0-1.374-0.032-2.375-0.094-3h14.812
		C91.531,3.453,91.5,4.297,91.5,5.296V12.421z M86.531,12.702c-0.063,1.125-0.094,2.095-0.094,2.906v4.312
		c0,0.75,0.375,1.187,1.125,1.312h3.469c0.875-0.062,1.421-0.391,1.641-0.984c0.218-0.594,0.359-1.359,0.422-2.297
		c0.687,0.501,1.374,0.844,2.062,1.031c-0.313,1.375-0.703,2.344-1.172,2.906s-1.172,0.844-2.109,0.844h-4.5
		c-1.813,0-2.719-0.719-2.719-2.156v-4.125c0-1.187-0.032-2.438-0.094-3.75H86.531z"/>
	<path fill="#FFFFFF" d="M101.766,21.14c-1.844,0.312-3.141,0.594-3.891,0.844c-0.188-0.812-0.407-1.594-0.656-2.344
		c1.125-0.062,2.046-0.125,2.766-0.188c0.718-0.062,1.578-0.155,2.578-0.281v-3.656h-1.312c-1.251,0-2.313,0.062-3.188,0.188v-1.781
		c1.062,0.062,2.03,0.094,2.906,0.094h1.594v-3.094c-1.251,0.062-2.142,0.126-2.672,0.188c-0.532,0.062-1.11,0.156-1.734,0.281
		c-0.126-0.812-0.313-1.531-0.562-2.156c0.999-0.249,1.89-0.875,2.672-1.875c0.781-0.999,1.39-2.124,1.828-3.375h-1.406
		c-1.063,0-2.062,0.032-3,0.094V2.296c0.999,0.062,1.969,0.094,2.906,0.094h6c1.125,0,2.124-0.031,3-0.094v1.781
		c-0.938-0.062-1.938-0.094-3-0.094h-3.844l1.688,1.125c-0.625,0.501-1.219,1.125-1.781,1.875s-1.219,1.562-1.969,2.438
		c2.25-0.125,4.343-0.249,6.281-0.375c-0.501-0.812-1.063-1.625-1.688-2.438c0.624-0.312,1.187-0.656,1.688-1.031
		c0.624,0.876,1.219,1.72,1.781,2.531c0.562,0.812,1.093,1.562,1.594,2.25c-0.562,0.438-1.188,0.844-1.875,1.219
		c-0.25-0.437-0.469-0.812-0.656-1.125c-1.312,0.188-2.407,0.313-3.281,0.375v3.188h1.781c1.062,0,1.969-0.031,2.719-0.094v1.781
		c-0.813-0.125-1.688-0.188-2.625-0.188h-1.875v3.469c1.749-0.249,3.593-0.53,5.531-0.844c-0.126,0.625-0.22,1.219-0.281,1.781
		C106.28,20.422,103.608,20.826,101.766,21.14z M113.063,7.452v7.031c0,1.312,0.031,2.406,0.094,3.281h-1.969
		c0.062-0.875,0.094-1.969,0.094-3.281V7.077c0-1.25-0.032-2.25-0.094-3h2.062C113.124,4.89,113.063,6.015,113.063,7.452z
		 M117.844,4.265V19.64c0,1.438-0.267,2.281-0.797,2.531c-0.532,0.249-1.673,0.53-3.422,0.844c-0.188-0.812-0.469-1.562-0.844-2.25
		c1.312,0,2.171-0.047,2.578-0.141c0.406-0.094,0.609-0.609,0.609-1.547V4.265c0-1.374-0.032-2.438-0.094-3.188h2.156
		C117.905,2.015,117.844,3.078,117.844,4.265z"/>
	<path fill="#FFFFFF" d="M120.938,8.015c0.875,0.062,1.749,0.094,2.625,0.094h1.969c-0.063,1.125-0.094,2.344-0.094,3.656v6.281
		c0.75-0.875,1.312-1.655,1.688-2.344c0.437,0.75,0.844,1.312,1.219,1.688c-0.625,0.625-1.312,1.375-2.062,2.25
		s-1.438,1.625-2.062,2.25c-0.562-0.562-1.031-1-1.406-1.312c0.624-0.375,0.905-0.969,0.844-1.781V9.608
		c-0.938,0-1.844,0.032-2.719,0.094V8.015z M126.469,4.733c-0.562,0.25-1.094,0.595-1.594,1.031c-1-1.688-1.813-2.844-2.438-3.469
		c0.5-0.249,0.968-0.562,1.406-0.938C124.594,2.108,125.468,3.233,126.469,4.733z M132.281,3.374
		c-0.25,0.595-0.501,1.172-0.75,1.734c6.375,0,10.156-0.031,11.344-0.094v1.688c-1.251-0.062-3.063-0.094-5.438-0.094v3.094
		c1.749,0,3.188-0.031,4.312-0.094v1.781c-1.125-0.062-2.563-0.094-4.312-0.094v3.188c1.937,0,3.406-0.031,4.406-0.094v1.688
		c-1.125-0.062-2.594-0.094-4.406-0.094v3.188c2.562,0,4.468-0.031,5.719-0.094v1.781c-1.251-0.062-2.594-0.094-4.031-0.094h-7.688
		v2.25h-1.875c0.062-1.251,0.094-2.938,0.094-5.062v-9c-0.501,0.688-1.125,1.532-1.875,2.531c-0.501-0.5-1.094-0.875-1.781-1.125
		c0.75-0.75,1.453-1.641,2.109-2.672s1.25-2.156,1.781-3.375c0.53-1.219,0.921-2.391,1.172-3.516
		c0.624,0.375,1.406,0.656,2.344,0.844C132.905,2.202,132.53,2.78,132.281,3.374z M135.563,9.702V6.608h-4.125v3.094H135.563z
		 M135.563,14.483v-3.188h-4.125v3.188H135.563z M135.563,19.171v-3.188h-4.125v3.188H135.563z M138.75,3.14
		c-0.625,0.25-1.219,0.595-1.781,1.031c-0.562-0.812-1.219-1.625-1.969-2.438c0.624-0.312,1.187-0.656,1.688-1.031
		C137.063,1.14,137.75,1.953,138.75,3.14z"/>
	<path fill="#FFFFFF" d="M151.5,3.233c1.625-0.188,2.937,0.656,3.938,2.531c0.624,2.125-0.22,4.251-2.531,6.375
		c-0.75,1.125-1.125,2.344-1.125,3.656h-1.688c-0.063-2.312,0.968-4.5,3.094-6.562c0.5-0.75,0.718-1.562,0.656-2.438
		c-0.375-1.25-1.094-1.843-2.156-1.781h-0.375c-1.312,0.062-1.938,1.031-1.875,2.906h-1.781c-0.063-2.312,0.718-3.75,2.344-4.312
		C150.249,3.421,150.75,3.296,151.5,3.233z M149.719,17.765h2.625v2.719h-2.625V17.765z"/>
</g>
</svg>
